<?xml version="1.0" encoding="us-ascii" standalone="no"?><svg xmlns="http://www.w3.org/2000/svg" xmlns:xlink="http://www.w3.org/1999/xlink" contentStyleType="text/css" height="1151px" preserveAspectRatio="none" style="width:1227px;height:1151px;background:#FFFFFF;" version="1.1" viewBox="0 0 1227 1151" width="1227px" zoomAndPan="magnify"><defs/><g><!--cluster front--><g id="cluster_front"><path d="M817.5,6 L857.5,6 A3.75,3.75 0 0 1 860,8.5 L867,28.2969 L1217.5,28.2969 A2.5,2.5 0 0 1 1220,30.7969 L1220,555.13 A2.5,2.5 0 0 1 1217.5,557.63 L817.5,557.63 A2.5,2.5 0 0 1 815,555.13 L815,8.5 A2.5,2.5 0 0 1 817.5,6 " fill="#FFFFFF" style="stroke:#000000;stroke-width:1.5;"/><line style="stroke:#000000;stroke-width:1.5;" x1="815" x2="867" y1="28.2969" y2="28.2969"/><text fill="#000000" font-family="sans-serif" font-size="14" font-weight="bold" lengthAdjust="spacing" textLength="39" x="819" y="20.9951">front</text><text fill="#000000" font-family="sans-serif" font-size="14" font-style="italic" lengthAdjust="spacing" textLength="92" x="975.5" y="43.292">&#171;angular:11&#187;</text></g><!--cluster analysis--><g id="cluster_analysis"><path d="M164.5,668.63 L228.5,668.63 A3.75,3.75 0 0 1 231,671.13 L238,690.9269 L337.5,690.9269 A2.5,2.5 0 0 1 340,693.4269 L340,1142.02 A2.5,2.5 0 0 1 337.5,1144.52 L164.5,1144.52 A2.5,2.5 0 0 1 162,1142.02 L162,671.13 A2.5,2.5 0 0 1 164.5,668.63 " fill="#FFFFFF" style="stroke:#000000;stroke-width:1.5;"/><line style="stroke:#000000;stroke-width:1.5;" x1="162" x2="238" y1="690.9269" y2="690.9269"/><text fill="#000000" font-family="sans-serif" font-size="14" font-weight="bold" lengthAdjust="spacing" textLength="63" x="166" y="683.6251">analysis</text></g><!--cluster backend--><g id="cluster_backend"><path d="M429.5,434.18 L497.5,434.18 A3.75,3.75 0 0 1 500,436.68 L507,456.4769 L788.5,456.4769 A2.5,2.5 0 0 1 791,458.9769 L791,952.72 A2.5,2.5 0 0 1 788.5,955.22 L429.5,955.22 A2.5,2.5 0 0 1 427,952.72 L427,436.68 A2.5,2.5 0 0 1 429.5,434.18 " fill="#FFFFFF" style="stroke:#000000;stroke-width:1.5;"/><line style="stroke:#000000;stroke-width:1.5;" x1="427" x2="507" y1="456.4769" y2="456.4769"/><text fill="#000000" font-family="sans-serif" font-size="14" font-weight="bold" lengthAdjust="spacing" textLength="67" x="431" y="449.1751">backend</text><text fill="#000000" font-family="sans-serif" font-size="14" font-style="italic" lengthAdjust="spacing" textLength="101" x="562.5" y="471.472">&#171;spring:5.3.5&#187;</text></g><!--entity XTemplate--><g id="elem_XTemplate"><path d="M847.5,77.2969 L847.5,101.2969 M847.5,89.2969 L864.5,89.2969 " fill="none" style="stroke:#181818;stroke-width:0.5;"/><ellipse cx="876.5" cy="89.2969" fill="#F1F1F1" rx="12" ry="12" style="stroke:#181818;stroke-width:0.5;"/><text fill="#000000" font-family="sans-serif" font-size="14" lengthAdjust="spacing" textLength="74" x="831" y="118.292">XTemplate</text><text fill="#000000" font-family="sans-serif" font-size="14" font-style="italic" lengthAdjust="spacing" textLength="56" x="840" y="69.9951">&#171;HTML&#187;</text></g><!--entity XComponent--><g id="elem_XComponent"><path d="M965.5,77.2969 L965.5,101.2969 M965.5,89.2969 L982.5,89.2969 " fill="none" style="stroke:#181818;stroke-width:0.5;"/><ellipse cx="994.5" cy="89.2969" fill="#F1F1F1" rx="12" ry="12" style="stroke:#181818;stroke-width:0.5;"/><text fill="#000000" font-family="sans-serif" font-size="14" lengthAdjust="spacing" textLength="91" x="940.5" y="118.292">XComponent</text><text fill="#000000" font-family="sans-serif" font-size="14" font-style="italic" lengthAdjust="spacing" textLength="91" x="940.5" y="69.9951">&#171;TypeScript&#187;</text></g><!--entity XStyle--><g id="elem_XStyle"><path d="M835.5,264.8869 L835.5,288.8869 M835.5,276.8869 L852.5,276.8869 " fill="none" style="stroke:#181818;stroke-width:0.5;"/><ellipse cx="864.5" cy="276.8869" fill="#F1F1F1" rx="12" ry="12" style="stroke:#181818;stroke-width:0.5;"/><text fill="#000000" font-family="sans-serif" font-size="14" lengthAdjust="spacing" textLength="42" x="835" y="305.882">XStyle</text><text fill="#000000" font-family="sans-serif" font-size="14" font-style="italic" lengthAdjust="spacing" textLength="46" x="833" y="257.5851">&#171;CSS&#187;</text></g><!--entity XService--><g id="elem_XService"><ellipse cx="961" cy="276.8869" fill="#F1F1F1" rx="12" ry="12" style="stroke:#181818;stroke-width:0.5;"/><polygon fill="#181818" points="957,264.8869,963,259.8869,961,264.8869,963,269.8869,957,264.8869" style="stroke:#181818;stroke-width:1.0;"/><text fill="#000000" font-family="sans-serif" font-size="14" lengthAdjust="spacing" textLength="59" x="931.5" y="305.882">XService</text><text fill="#000000" font-family="sans-serif" font-size="14" font-style="italic" lengthAdjust="spacing" textLength="91" x="915.5" y="257.5851">&#171;TypeScript&#187;</text></g><!--entity XValidator--><g id="elem_XValidator"><path d="M1137.5,264.8869 L1137.5,288.8869 M1137.5,276.8869 L1154.5,276.8869 " fill="none" style="stroke:#181818;stroke-width:0.5;"/><ellipse cx="1166.5" cy="276.8869" fill="#F1F1F1" rx="12" ry="12" style="stroke:#181818;stroke-width:0.5;"/><text fill="#000000" font-family="sans-serif" font-size="14" lengthAdjust="spacing" textLength="68" x="1124" y="305.882">XValidator</text><text fill="#000000" font-family="sans-serif" font-size="14" font-style="italic" lengthAdjust="spacing" textLength="91" x="1112.5" y="257.5851">&#171;TypeScript&#187;</text></g><!--entity HTTPService--><g id="elem_HTTPService"><ellipse cx="945" cy="501.18" fill="#F1F1F1" rx="12" ry="12" style="stroke:#181818;stroke-width:0.5;"/><line style="stroke:#181818;stroke-width:0.5;" x1="933" x2="957" y1="515.18" y2="515.18"/><text fill="#000000" font-family="sans-serif" font-size="14" lengthAdjust="spacing" textLength="87" x="901.5" y="530.1751">HTTPService</text></g><!--entity XDto--><g id="elem_XDto"><ellipse cx="1045" cy="509.3369" fill="#F1F1F1" rx="12" ry="12" style="stroke:#181818;stroke-width:0.5;"/><line style="stroke:#181818;stroke-width:0.5;" x1="1033" x2="1057" y1="523.3369" y2="523.3369"/><text fill="#000000" font-family="sans-serif" font-size="14" lengthAdjust="spacing" textLength="34" x="1028" y="538.332">XDto</text><text fill="#000000" font-family="sans-serif" font-size="14" font-style="italic" lengthAdjust="spacing" textLength="44" x="1023" y="490.0351">&#171;java&#187;</text></g><!--entity XView--><g id="elem_XView"><path d="M192.5,707.63 L192.5,731.63 M192.5,719.63 L209.5,719.63 " fill="none" style="stroke:#181818;stroke-width:0.5;"/><ellipse cx="221.5" cy="719.63" fill="#F1F1F1" rx="12" ry="12" style="stroke:#181818;stroke-width:0.5;"/><text fill="#000000" font-family="sans-serif" font-size="14" lengthAdjust="spacing" textLength="41" x="192.5" y="748.6251">XView</text></g><!--entity XController--><g id="elem_XController"><ellipse cx="216" cy="906.93" fill="#F1F1F1" rx="12" ry="12" style="stroke:#181818;stroke-width:0.5;"/><polygon fill="#181818" points="212,894.93,218,889.93,216,894.93,218,899.93,212,894.93" style="stroke:#181818;stroke-width:1.0;"/><text fill="#000000" font-family="sans-serif" font-size="14" lengthAdjust="spacing" textLength="76" x="178" y="935.9251">XController</text></g><!--entity XEntity--><g id="elem_XEntity"><ellipse cx="300" cy="1096.22" fill="#F1F1F1" rx="12" ry="12" style="stroke:#181818;stroke-width:0.5;"/><line style="stroke:#181818;stroke-width:0.5;" x1="288" x2="312" y1="1110.22" y2="1110.22"/><text fill="#000000" font-family="sans-serif" font-size="14" lengthAdjust="spacing" textLength="47" x="276.5" y="1125.2151">XEntity</text></g><!--entity XDao--><g id="elem_XDao"><ellipse cx="223" cy="1096.22" fill="#F1F1F1" rx="12" ry="12" style="stroke:#181818;stroke-width:0.5;"/><line style="stroke:#181818;stroke-width:0.5;" x1="211" x2="235" y1="1110.22" y2="1110.22"/><text fill="#000000" font-family="sans-serif" font-size="14" lengthAdjust="spacing" textLength="37" x="204.5" y="1125.2151">XDao</text></g><!--entity XControllerJava--><g id="elem_XControllerJava"><ellipse cx="718" cy="501.18" fill="#F1F1F1" rx="12" ry="12" style="stroke:#181818;stroke-width:0.5;"/><polygon fill="#181818" points="714,489.18,720,484.18,718,489.18,720,494.18,714,489.18" style="stroke:#181818;stroke-width:1.0;"/><text fill="#000000" font-family="sans-serif" font-size="14" lengthAdjust="spacing" textLength="115" x="660.5" y="530.1751">XController - java</text></g><!--entity XResourceJava--><g id="elem_XResourceJava"><ellipse cx="568" cy="501.18" fill="#F1F1F1" rx="12" ry="12" style="stroke:#181818;stroke-width:0.5;"/><polygon fill="#181818" points="564,489.18,570,484.18,568,489.18,570,494.18,564,489.18" style="stroke:#181818;stroke-width:1.0;"/><text fill="#000000" font-family="sans-serif" font-size="14" lengthAdjust="spacing" textLength="115" x="510.5" y="530.1751">XResource - java</text></g><!--entity XRepositoryJava--><g id="elem_XRepositoryJava"><ellipse cx="504" cy="719.63" fill="#F1F1F1" rx="12" ry="12" style="stroke:#181818;stroke-width:0.5;"/><line style="stroke:#181818;stroke-width:0.5;" x1="492" x2="516" y1="733.63" y2="733.63"/><text fill="#000000" font-family="sans-serif" font-size="14" lengthAdjust="spacing" textLength="122" x="443" y="748.6251">XRepository - java</text></g><!--entity XEntityJava--><g id="elem_XEntityJava"><ellipse cx="624" cy="906.93" fill="#F1F1F1" rx="12" ry="12" style="stroke:#181818;stroke-width:0.5;"/><line style="stroke:#181818;stroke-width:0.5;" x1="612" x2="636" y1="920.93" y2="920.93"/><text fill="#000000" font-family="sans-serif" font-size="14" lengthAdjust="spacing" textLength="86" x="581" y="935.9251">XEntity - java</text></g><!--entity XDtoJava--><g id="elem_XDtoJava"><ellipse cx="738" cy="906.93" fill="#F1F1F1" rx="12" ry="12" style="stroke:#181818;stroke-width:0.5;"/><line style="stroke:#181818;stroke-width:0.5;" x1="726" x2="750" y1="920.93" y2="920.93"/><text fill="#000000" font-family="sans-serif" font-size="14" lengthAdjust="spacing" textLength="73" x="701.5" y="935.9251">XDto - java</text></g><!--reverse link XTemplate to XComponent--><g id="link_XTemplate_XComponent"><path d="M911.34,89.29 C922.41,89.29 928.66,89.29 940.21,89.29 " fill="none" id="XTemplate-backto-XComponent" style="stroke:#181818;stroke-width:1.0;"/><polygon fill="#181818" points="905.34,89.29,914.34,93.29,910.34,89.29,914.34,85.29,905.34,89.29" style="stroke:#181818;stroke-width:1.0;"/></g><!--link XTemplate to XStyle--><g id="link_XTemplate_XStyle"><path d="M865.96,121.78 C863.76,155.91 860.647,204.0725 858.437,238.2625 " fill="none" id="XTemplate-to-XStyle" style="stroke:#181818;stroke-width:1.0;"/><polygon fill="#181818" points="858.05,244.25,862.6222,235.5268,858.3725,239.2604,854.6389,235.0107,858.05,244.25" style="stroke:#181818;stroke-width:1.0;"/></g><!--link XComponent to XService--><g id="link_XComponent_XService"><path d="M981.76,121.78 C977.16,155.91 970.6718,204.1138 966.0618,238.3038 " fill="none" id="XComponent-to-XService" style="stroke:#181818;stroke-width:1.0;"/><polygon fill="#181818" points="965.26,244.25,970.4268,235.8652,965.9281,239.2948,962.4985,234.7962,965.26,244.25" style="stroke:#181818;stroke-width:1.0;"/></g><!--link XComponent to XValidator--><g id="link_XComponent_XValidator"><path d="M1031.97,112.14 C1050.26,122.35 1070.57,135.77 1086,151.59 C1112.38,178.64 1130.2712,211.736 1142.5112,238.716 " fill="none" id="XComponent-to-XValidator" style="stroke:#181818;stroke-width:1.0;"/><polygon fill="#181818" points="1144.99,244.18,1144.9144,234.3314,1142.9243,239.6267,1137.6291,237.6366,1144.99,244.18" style="stroke:#181818;stroke-width:1.0;"/></g><!--link XComponent to XDto--><g id="link_XComponent_XDto"><path d="M1031.77,115.03 C1054.43,130.89 1077,153.9 1077,182.59 C1077,182.59 1077,182.59 1077,379.68 C1077,413.52 1068.4297,445.246 1059.4397,470.966 " fill="none" id="XComponent-to-XDto" style="stroke:#181818;stroke-width:1.0;"/><polygon fill="#181818" points="1057.46,476.63,1064.2056,469.4539,1059.1098,471.91,1056.6536,466.8142,1057.46,476.63" style="stroke:#181818;stroke-width:1.0;"/></g><!--reverse link XService to HTTPService--><g id="link_XService_HTTPService"><path d="M957.9794,321.4212 C954.7294,368.2612 949.53,443.15 946.63,484.83 " fill="none" id="XService-backto-HTTPService" style="stroke:#181818;stroke-width:1.0;"/><polygon fill="none" points="958.81,309.45,954.4043,315.1587,957.9794,321.4212,962.3851,315.7125,958.81,309.45" style="stroke:#181818;stroke-width:1.0;"/></g><!--link XService to XDto--><g id="link_XService_XDto"><path d="M972.5,309.45 C988.54,353.45 1015.405,427.1529 1031.445,471.1529 " fill="none" id="XService-to-XDto" style="stroke:#181818;stroke-width:1.0;"/><polygon fill="#181818" points="1033.5,476.79,1034.1756,466.9643,1031.7875,472.0924,1026.6594,469.7043,1033.5,476.79" style="stroke:#181818;stroke-width:1.0;"/></g><!--link XView to XController--><g id="link_XView_XController"><path d="M213.38,752.25 C213.96,787.79 214.9423,848.9008 215.5223,884.5108 " fill="none" id="XView-to-XController" style="stroke:#181818;stroke-width:1.0;"/><polygon fill="#181818" points="215.62,890.51,219.4729,881.4461,215.5386,885.5107,211.474,881.5763,215.62,890.51" style="stroke:#181818;stroke-width:1.0;"/></g><!--link XView to XEntity--><g id="link_XView_XEntity"><path d="M223.35,752.18 C236.67,783.26 259.57,840.15 272,890.93 C288.49,958.32 295.4021,1034.2846 298.1621,1073.8146 " fill="none" id="XView-to-XEntity" style="stroke:#181818;stroke-width:1.0;"/><polygon fill="#181818" points="298.58,1079.8,301.9434,1070.5433,298.2317,1074.8121,293.9629,1071.1005,298.58,1079.8" style="stroke:#181818;stroke-width:1.0;"/></g><!--link XController to XDao--><g id="link_XController_XDao"><path d="M216.87,939.42 C218.21,975.31 220.5455,1037.6742 221.8955,1073.7342 " fill="none" id="XController-to-XDao" style="stroke:#181818;stroke-width:1.0;"/><polygon fill="#181818" points="222.12,1079.73,225.7805,1070.5867,221.9329,1074.7335,217.7861,1070.8859,222.12,1079.73" style="stroke:#181818;stroke-width:1.0;"/></g><!--link XController to XEntity--><g id="link_XController_XEntity"><path d="M226.47,939.42 C242.57,975.31 270.7637,1038.1958 286.9437,1074.2558 " fill="none" id="XController-to-XEntity" style="stroke:#181818;stroke-width:1.0;stroke-dasharray:7.0,7.0;"/><polygon fill="#181818" points="289.4,1079.73,289.3651,1069.8812,287.3531,1075.1682,282.0662,1073.1562,289.4,1079.73" style="stroke:#181818;stroke-width:1.0;"/></g><!--link XControllerJava to XRepositoryJava--><g id="link_XControllerJava_XRepositoryJava"><path d="M694.69,533.91 C653.53,575.54 572.6385,657.3533 531.4985,698.9633 " fill="none" id="XControllerJava-to-XRepositoryJava" style="stroke:#181818;stroke-width:1.0;"/><polygon fill="#181818" points="527.28,703.23,536.4522,699.6423,530.7954,699.6744,530.7633,694.0177,527.28,703.23" style="stroke:#181818;stroke-width:1.0;"/></g><!--link XControllerJava to XEntityJava--><g id="link_XControllerJava_XEntityJava"><path d="M713.31,533.68 C709.58,554.24 705,585.05 705,612.13 C705,612.13 705,612.13 705,822.43 C705,850.67 687.8926,870.6377 666.8826,886.8277 " fill="none" id="XControllerJava-to-XEntityJava" style="stroke:#181818;stroke-width:1.0;"/><polygon fill="#181818" points="662.13,890.49,671.7005,888.165,666.0905,887.4381,666.8174,881.8281,662.13,890.49" style="stroke:#181818;stroke-width:1.0;"/></g><!--link XControllerJava to XDtoJava--><g id="link_XControllerJava_XDtoJava"><path d="M719.16,533.78 C722.7,605.14 733.0031,813.1174 736.5431,884.5674 " fill="none" id="XControllerJava-to-XDtoJava" style="stroke:#181818;stroke-width:1.0;"/><polygon fill="#181818" points="736.84,890.56,740.3897,881.3731,736.5926,885.5661,732.3995,881.769,736.84,890.56" style="stroke:#181818;stroke-width:1.0;"/></g><!--link XRepositoryJava to XEntityJava--><g id="link_XRepositoryJava_XEntityJava"><path d="M519.2,752.25 C542.22,787.79 582.4187,849.8638 605.4787,885.4738 " fill="none" id="XRepositoryJava-to-XEntityJava" style="stroke:#181818;stroke-width:1.0;"/><polygon fill="#181818" points="608.74,890.51,607.2055,880.7814,606.0222,886.3131,600.4905,885.1299,608.74,890.51" style="stroke:#181818;stroke-width:1.0;"/></g><!--link XResourceJava to XDtoJava--><g id="link_XResourceJava_XDtoJava"><path d="M594.87,533.85 C613.51,552.87 635,581.45 635,612.13 C635,612.13 635,612.13 635,822.43 C635,858.93 666.1769,881.7898 695.7369,896.4798 " fill="none" id="XResourceJava-to-XDtoJava" style="stroke:#181818;stroke-width:1.0;"/><polygon fill="#181818" points="701.11,899.15,694.8305,891.5627,696.6324,896.9248,691.2702,898.7268,701.11,899.15" style="stroke:#181818;stroke-width:1.0;"/></g><!--link XResourceJava to XControllerJava--><g id="link_XResourceJava_XControllerJava"><path d="M625.99,509.33 C637.21,509.33 642.95,509.33 654.16,509.33 " fill="none" id="XResourceJava-to-XControllerJava" style="stroke:#181818;stroke-width:1.0;"/><polygon fill="#181818" points="660.16,509.33,651.16,505.33,655.16,509.33,651.16,513.33,660.16,509.33" style="stroke:#181818;stroke-width:1.0;"/></g><!--reverse link XEntityJava to XDtoJava--><g id="link_XEntityJava_XDtoJava"><path d="M673.42,915.07 C684.5,915.07 690.3,915.07 701.02,915.07 " fill="none" id="XEntityJava-backto-XDtoJava" style="stroke:#181818;stroke-width:1.0;"/><polygon fill="#181818" points="667.42,915.07,676.42,919.07,672.42,915.07,676.42,911.07,667.42,915.07" style="stroke:#181818;stroke-width:1.0;"/></g><!--link XComponent to XView--><g id="link_XComponent_XView"><path d="M940.01,115.62 C934.4,117.96 928.65,120.03 923,121.59 C837.48,145.15 127,93.89 127,182.59 C127,182.59 127,182.59 127,614.13 C127,654.73 157.997,686.1024 183.397,705.8924 " fill="none" id="XComponent-to-XView" style="stroke:#181818;stroke-width:1.0;stroke-dasharray:7.0,7.0;"/><polygon fill="#181818" points="188.13,709.58,183.4889,700.8932,184.1858,706.507,178.5721,707.2039,188.13,709.58" style="stroke:#181818;stroke-width:1.0;"/><text fill="#000000" font-family="sans-serif" font-size="13" lengthAdjust="spacing" textLength="49" x="128" y="383.2469">&#171;trace&#187;</text></g><!--link XTemplate to XView--><g id="link_XTemplate_XView"><path d="M830.68,90.31 C665.23,90.86 6,98.35 6,182.59 C6,182.59 6,182.59 6,614.13 C6,696.16 127.0149,718.1542 182.0649,724.1142 " fill="none" id="XTemplate-to-XView" style="stroke:#181818;stroke-width:1.0;stroke-dasharray:7.0,7.0;"/><polygon fill="#181818" points="188.03,724.76,179.5128,719.8145,183.059,724.2218,178.6517,727.768,188.03,724.76" style="stroke:#181818;stroke-width:1.0;"/><text fill="#000000" font-family="sans-serif" font-size="13" lengthAdjust="spacing" textLength="49" x="7" y="383.2469">&#171;trace&#187;</text></g><!--link XStyle to XView--><g id="link_XStyle_XView"><path d="M831.12,277.7 C734.32,277.38 383.79,280.41 293,339.18 C170.72,418.34 195.0751,626.2882 207.4151,697.4682 " fill="none" id="XStyle-to-XView" style="stroke:#181818;stroke-width:1.0;stroke-dasharray:7.0,7.0;"/><polygon fill="#181818" points="208.44,703.38,210.8439,693.829,207.5859,698.4535,202.9614,695.1955,208.44,703.38" style="stroke:#181818;stroke-width:1.0;"/><text fill="#000000" font-family="sans-serif" font-size="13" lengthAdjust="spacing" textLength="49" x="224" y="513.8969">&#171;trace&#187;</text></g><!--link XService to XController--><g id="link_XService_XController"><path d="M915.06,302.13 C909.39,304.7 903.62,307.12 898,309.18 C695.55,383.61 597.96,294.67 427,426.18 C336.36,495.91 303,537.28 303,651.63 C303,651.63 303,651.63 303,822.43 C303,852.7 282.6727,873.5832 259.3627,889.5232 " fill="none" id="XService-to-XController" style="stroke:#181818;stroke-width:1.0;stroke-dasharray:7.0,7.0;"/><polygon fill="#181818" points="254.41,892.91,264.097,891.1316,258.5373,890.0877,259.5812,884.528,254.41,892.91" style="stroke:#181818;stroke-width:1.0;"/><text fill="#000000" font-family="sans-serif" font-size="13" lengthAdjust="spacing" textLength="49" x="306" y="617.6969">&#171;trace&#187;</text></g><!--link XDto to XEntity--><g id="link_XDto_XEntity"><path d="M1045,541.97 C1045,562.07 1045,588.62 1045,612.13 C1045,612.13 1045,612.13 1045,1011.72 C1045,1086.17 457.459,1100.6232 329.939,1102.8932 " fill="none" id="XDto-to-XEntity" style="stroke:#181818;stroke-width:1.0;stroke-dasharray:7.0,7.0;"/><polygon fill="#181818" points="323.94,1103,333.0098,1106.8392,328.9392,1102.911,332.8674,1098.8404,323.94,1103" style="stroke:#181818;stroke-width:1.0;"/><text fill="#000000" font-family="sans-serif" font-size="13" lengthAdjust="spacing" textLength="49" x="1046" y="825.9969">&#171;trace&#187;</text></g><!--link XDto to XDtoJava--><g id="link_XDto_XDtoJava"><path d="M1025.46,541.91 C1019.7,550.07 1013.04,558.54 1006,565.63 C980.97,590.83 941,576.61 941,612.13 C941,612.13 941,612.13 941,822.43 C941,894.54 839.251,909.8923 780.751,913.0923 " fill="none" id="XDto-to-XDtoJava" style="stroke:#181818;stroke-width:1.0;stroke-dasharray:7.0,7.0;"/><polygon fill="#181818" points="774.76,913.42,783.965,916.9225,779.7525,913.1469,783.5281,908.9344,774.76,913.42" style="stroke:#181818;stroke-width:1.0;"/><text fill="#000000" font-family="sans-serif" font-size="13" lengthAdjust="spacing" textLength="49" x="942" y="732.3469">&#171;trace&#187;</text></g><!--link XRepositoryJava to XDao--><g id="link_XRepositoryJava_XDao"><path d="M500.44,752.07 C497.93,770.56 495,797.08 495,820.43 C495,820.43 495,820.43 495,1011.72 C495,1055.75 321.14,1055.44 259,1080.22 C253.06,1082.59 252.091,1082.726 246.731,1086.186 " fill="none" id="XRepositoryJava-to-XDao" style="stroke:#181818;stroke-width:1.0;stroke-dasharray:7.0,7.0;"/><polygon fill="#181818" points="241.69,1089.44,251.4208,1087.9196,245.8908,1086.7283,247.0821,1081.1983,241.69,1089.44" style="stroke:#181818;stroke-width:1.0;"/><text fill="#000000" font-family="sans-serif" font-size="13" lengthAdjust="spacing" textLength="49" x="496" y="919.6369">&#171;trace&#187;</text></g><!--link XResourceJava to XDao--><g id="link_XResourceJava_XDao"><path d="M537,533.74 C503.89,560.56 452.58,607.7 426,660.63 C385.64,741 391,769.99 391,859.93 C391,859.93 391,859.93 391,1011.72 C391,1077.82 316.19,1047.09 259,1080.22 C253.34,1083.5 252.3656,1084.0131 246.8956,1087.5331 " fill="none" id="XResourceJava-to-XDao" style="stroke:#181818;stroke-width:1.0;stroke-dasharray:7.0,7.0;"/><polygon fill="#181818" points="241.85,1090.78,251.5829,1089.2734,246.0546,1088.0743,247.2538,1082.546,241.85,1090.78" style="stroke:#181818;stroke-width:1.0;"/><text fill="#000000" font-family="sans-serif" font-size="13" lengthAdjust="spacing" textLength="49" x="391" y="825.9969">&#171;trace&#187;</text></g><!--link XControllerJava to XDao--><g id="link_XControllerJava_XDao"><path d="M756.31,533.79 C791.09,556.48 837,590.52 837,612.13 C837,612.13 837,612.13 837,1011.72 C837,1141.07 380.73,1036.52 259,1080.22 C253.13,1082.33 252.2848,1082.3176 247.0148,1085.6876 " fill="none" id="XControllerJava-to-XDao" style="stroke:#181818;stroke-width:1.0;stroke-dasharray:7.0,7.0;"/><polygon fill="#181818" points="241.96,1088.92,251.6972,1087.4413,246.1724,1086.2263,247.3873,1080.7015,241.96,1088.92" style="stroke:#181818;stroke-width:1.0;"/><text fill="#000000" font-family="sans-serif" font-size="13" lengthAdjust="spacing" textLength="49" x="838" y="825.9969">&#171;trace&#187;</text></g><!--link XDtoJava to XEntity--><g id="link_XDtoJava_XEntity"><path d="M718.66,939.42 C698.55,962.41 665.15,997.19 630,1019.22 C528.56,1082.81 387.1071,1098.0564 329.9071,1101.8164 " fill="none" id="XDtoJava-to-XEntity" style="stroke:#181818;stroke-width:1.0;stroke-dasharray:7.0,7.0;"/><polygon fill="#181818" points="323.92,1102.21,333.163,1105.6111,328.9092,1101.882,332.6382,1097.6283,323.92,1102.21" style="stroke:#181818;stroke-width:1.0;"/><text fill="#000000" font-family="sans-serif" font-size="13" lengthAdjust="spacing" textLength="49" x="654" y="1015.2869">&#171;trace&#187;</text></g><!--link XEntityJava to XEntity--><g id="link_XEntityJava_XEntity"><path d="M612.39,939.72 C596.22,970.12 563.97,1022.31 521,1050.22 C458.12,1091.06 372.8323,1100.2554 329.9523,1102.4354 " fill="none" id="XEntityJava-to-XEntity" style="stroke:#181818;stroke-width:1.0;stroke-dasharray:7.0,7.0;"/><polygon fill="#181818" points="323.96,1102.74,333.1515,1106.2779,328.9536,1102.4861,332.7453,1098.2882,323.96,1102.74" style="stroke:#181818;stroke-width:1.0;"/><text fill="#000000" font-family="sans-serif" font-size="13" lengthAdjust="spacing" textLength="49" x="572" y="1015.2869">&#171;trace&#187;</text></g><!--link XService to XResourceJava--><g id="link_XService_XResourceJava"><path d="M915.32,300.79 C909.5,303.64 903.62,306.5 898,309.18 C785.48,362.93 743.72,352.67 643,426.18 C620.38,442.69 603.0228,462.1289 589.0228,479.9789 " fill="none" id="XService-to-XResourceJava" style="stroke:#181818;stroke-width:1.0;stroke-dasharray:7.0,7.0;"/><polygon fill="#181818" points="585.32,484.7,594.0217,480.0869,588.4057,480.7657,587.7268,475.1498,585.32,484.7" style="stroke:#181818;stroke-width:1.0;"/><text fill="#000000" font-family="sans-serif" font-size="13" lengthAdjust="spacing" textLength="49" x="741" y="383.2469">&#171;trace&#187;</text></g><!--SRC=[VPHDQ-Cm48Rl_XMYTnlAqaieFcnseInRA8qflKuTrLMhI4PM6ioo_tr7jcpFQEtceaJlCz-QT1_AjE3W91wW_e16ViUZSVPiZdkhhHEND-LbbhMZAbwTDLxSte9fpXhSxlgwBFza0ZylmGPSBvuhUMerU8dONNN_komJVMzFhJLoy5FrhJpKJhN-F-pWUnryx0-7gDKOsrcDadIVgfPVsp-1LaVmMCCAXj6LxyLTLJr4P_Jw-OUtQFKEdu3ytuoadETQllgyNChCbeBp_6Wl9eX3yjnkbcAyLN5EUbt6lBAvUXllMHMpoetc0O81tNUgIuVsfEI5Dta_Vj7IiTRy74xUBR3Of6pmGU8I1waKdH24velkg58KGIaMixcO5pobEUAekjOfq-nkYc_5JNYHKnLNB8G84xqIqD7aVk4TuHzbPyykD93Gq-N0nh83sjfEuR3w19wkEJvcpz3nYcFXxL46Vmz0w33FclGiYRaDaeZRq1GoSRlXXZPdtGdJdMhUF7yV8nSDo8gHA7GVYY8yXk59xN3sta4jSK-NFTm2nh-KJJLkpgYJTyEeC9wHYFFSKATgc9pqCv9WKueqR61Me6HuMzYKHjJNSbww_1N5kiCtWeB_0000]--></g></svg>