<svg xmlns="http://www.w3.org/2000/svg" xmlns:xlink="http://www.w3.org/1999/xlink" contentStyleType="text/css" height="372px" preserveAspectRatio="none" style="width:527px;height:372px;background:#FFFFFF;" version="1.1" viewBox="0 0 527 372" width="527px" zoomAndPan="magnify"><defs/><g><!--entity Mechanic--><g id="elem_Mechanic"><ellipse cx="32.0471" cy="156.5" fill="#F1F1F1" rx="8" ry="8" style="stroke:#181818;stroke-width:0.5;"/><path d="M32.0471,164.5 L32.0471,191.5 M19.0471,172.5 L45.0471,172.5 M32.0471,191.5 L19.0471,206.5 M32.0471,191.5 L45.0471,206.5 " fill="none" style="stroke:#181818;stroke-width:0.5;"/><text fill="#000000" font-family="sans-serif" font-size="11" lengthAdjust="spacing" textLength="52.0942" x="6" y="218.2104">Mechanic</text></g><!--entity ReportsView--><g id="elem_ReportsView"><path d="M126.72,112.59 L126.72,136.59 M126.72,124.59 L143.72,124.59 " fill="none" style="stroke:#181818;stroke-width:0.5;"/><ellipse cx="155.72" cy="124.59" fill="#F1F1F1" rx="12" ry="12" style="stroke:#181818;stroke-width:0.5;"/><text fill="#000000" font-family="sans-serif" font-size="11" lengthAdjust="spacing" textLength="42.6895" x="125.8753" y="150.8004">Reports</text><text fill="#000000" font-family="sans-serif" font-size="11" lengthAdjust="spacing" textLength="26.3452" x="134.0474" y="163.6051">View</text></g><!--entity ShowReportsController--><g id="elem_ShowReportsController"><ellipse cx="272.5351" cy="124.59" fill="#F1F1F1" rx="12" ry="12" style="stroke:#181818;stroke-width:0.5;"/><polygon fill="#181818" points="268.5351,112.59,274.5351,107.59,272.5351,112.59,274.5351,117.59,268.5351,112.59" style="stroke:#181818;stroke-width:1;"/><text fill="#000000" font-family="sans-serif" font-size="11" lengthAdjust="spacing" textLength="72.3701" x="236.35" y="150.8004">ShowReports</text><text fill="#000000" font-family="sans-serif" font-size="11" lengthAdjust="spacing" textLength="54.3501" x="245.36" y="163.6051">Controller</text></g><!--entity Client--><g id="elem_Client"><ellipse cx="492.92" cy="18" fill="#F1F1F1" rx="12" ry="12" style="stroke:#181818;stroke-width:0.5;"/><line style="stroke:#181818;stroke-width:0.5;" x1="480.92" x2="504.92" y1="32" y2="32"/><text fill="#000000" font-family="sans-serif" font-size="11" lengthAdjust="spacing" textLength="31.8452" x="476.9974" y="44.2104">Client</text></g><!--entity Vehicle--><g id="elem_Vehicle"><ellipse cx="492.9259" cy="98" fill="#F1F1F1" rx="12" ry="12" style="stroke:#181818;stroke-width:0.5;"/><line style="stroke:#181818;stroke-width:0.5;" x1="480.9259" x2="504.9259" y1="112" y2="112"/><text fill="#000000" font-family="sans-serif" font-size="11" lengthAdjust="spacing" textLength="40.1919" x="472.83" y="124.2104">Vehicle</text></g><!--entity Employee--><g id="elem_Employee"><ellipse cx="492.9195" cy="178" fill="#F1F1F1" rx="12" ry="12" style="stroke:#181818;stroke-width:0.5;"/><line style="stroke:#181818;stroke-width:0.5;" x1="480.9195" x2="504.9195" y1="192" y2="192"/><text fill="#000000" font-family="sans-serif" font-size="11" lengthAdjust="spacing" textLength="54.479" x="465.68" y="204.2104">Employee</text></g><!--entity EditReportView--><g id="elem_EditReportView"><path d="M126.7201,205.59 L126.7201,229.59 M126.7201,217.59 L143.7201,217.59 " fill="none" style="stroke:#181818;stroke-width:0.5;"/><ellipse cx="155.7201" cy="217.59" fill="#F1F1F1" rx="12" ry="12" style="stroke:#181818;stroke-width:0.5;"/><text fill="#000000" font-family="sans-serif" font-size="11" lengthAdjust="spacing" textLength="58.2603" x="118.09" y="243.8004">EditReport</text><text fill="#000000" font-family="sans-serif" font-size="11" lengthAdjust="spacing" textLength="26.3452" x="134.0475" y="256.6051">View</text></g><!--entity SetRepairsController--><g id="elem_SetRepairsController"><ellipse cx="272.5432" cy="217.59" fill="#F1F1F1" rx="12" ry="12" style="stroke:#181818;stroke-width:0.5;"/><polygon fill="#181818" points="268.5432,205.59,274.5432,200.59,272.5432,205.59,274.5432,210.59,268.5432,205.59" style="stroke:#181818;stroke-width:1;"/><text fill="#000000" font-family="sans-serif" font-size="11" lengthAdjust="spacing" textLength="59.5063" x="242.79" y="243.8004">SetRepairs</text><text fill="#000000" font-family="sans-serif" font-size="11" lengthAdjust="spacing" textLength="54.3501" x="245.3681" y="256.6051">Controller</text></g><!--entity Report--><g id="elem_Report"><ellipse cx="387.1992" cy="178" fill="#F1F1F1" rx="12" ry="12" style="stroke:#181818;stroke-width:0.5;"/><line style="stroke:#181818;stroke-width:0.5;" x1="375.1992" x2="399.1992" y1="192" y2="192"/><text fill="#000000" font-family="sans-serif" font-size="11" lengthAdjust="spacing" textLength="36.9585" x="368.72" y="204.2104">Report</text></g><!--entity Repair--><g id="elem_Repair"><ellipse cx="492.9262" cy="258" fill="#F1F1F1" rx="12" ry="12" style="stroke:#181818;stroke-width:0.5;"/><line style="stroke:#181818;stroke-width:0.5;" x1="480.9262" x2="504.9262" y1="272" y2="272"/><text fill="#000000" font-family="sans-serif" font-size="11" lengthAdjust="spacing" textLength="35.7124" x="475.07" y="284.2104">Repair</text></g><!--entity SparePart--><g id="elem_SparePart"><ellipse cx="492.9225" cy="338" fill="#F1F1F1" rx="12" ry="12" style="stroke:#181818;stroke-width:0.5;"/><line style="stroke:#181818;stroke-width:0.5;" x1="480.9225" x2="504.9225" y1="352" y2="352"/><text fill="#000000" font-family="sans-serif" font-size="11" lengthAdjust="spacing" textLength="54.2051" x="465.82" y="364.2104">SparePart</text></g><!--link Mechanic to ReportsView--><g id="link_Mechanic_ReportsView"><path d="M58.45,173.85 C77.61,165.89 98.1681,157.3495 116.9181,149.5695 " fill="none" id="Mechanic-to-ReportsView" style="stroke:#181818;stroke-width:1;"/><polygon fill="#181818" points="122.46,147.27,112.6142,147.0247,117.8418,149.1863,115.6802,154.4138,122.46,147.27" style="stroke:#181818;stroke-width:1;"/></g><!--link ReportsView to ShowReportsController--><g id="link_ReportsView_ShowReportsController"><path d="M172,137.4 C190.2,137.4 209.58,137.4 230.16,137.4 " fill="none" id="ReportsView-to-ShowReportsController" style="stroke:#181818;stroke-width:1;"/><polygon fill="#181818" points="236.16,137.4,227.16,133.4,231.16,137.4,227.16,141.4,236.16,137.4" style="stroke:#181818;stroke-width:1;"/></g><!--link ShowReportsController to Report--><g id="link_ShowReportsController_Report"><path d="M309.19,152.27 C328.91,160.5 347.0328,168.0593 362.8728,174.6693 " fill="none" id="ShowReportsController-to-Report" style="stroke:#181818;stroke-width:1;"/><polygon fill="#181818" points="368.41,176.98,361.6446,169.8225,363.7957,175.0544,358.5637,177.2055,368.41,176.98" style="stroke:#181818;stroke-width:1;"/></g><!--link Mechanic to EditReportView--><g id="link_Mechanic_EditReportView"><path d="M58.45,194.72 C76.04,201.87 93.9312,209.1417 112.1712,216.5517 " fill="none" id="Mechanic-to-EditReportView" style="stroke:#181818;stroke-width:1;"/><polygon fill="#181818" points="117.73,218.81,110.8973,211.7167,113.0977,216.9281,107.8863,219.1285,117.73,218.81" style="stroke:#181818;stroke-width:1;"/></g><!--link EditReportView to SetRepairsController--><g id="link_EditReportView_SetRepairsController"><path d="M176.83,230.4 C196.6,230.4 216.83,230.4 236.67,230.4 " fill="none" id="EditReportView-to-SetRepairsController" style="stroke:#181818;stroke-width:1;"/><polygon fill="#181818" points="242.67,230.4,233.67,226.4,237.67,230.4,233.67,234.4,242.67,230.4" style="stroke:#181818;stroke-width:1;"/></g><!--link SetRepairsController to Report--><g id="link_SetRepairsController_Report"><path d="M302.55,218.55 C323.42,210.03 345.3251,201.0879 362.9851,193.8779 " fill="none" id="SetRepairsController-to-Report" style="stroke:#181818;stroke-width:1;"/><polygon fill="#181818" points="368.54,191.61,358.6958,191.3086,363.9109,193.4999,361.7196,198.7151,368.54,191.61" style="stroke:#181818;stroke-width:1;"/></g><!--link Report to Repair--><g id="link_Report_Repair"><path d="M405.8,197.97 C424.99,212.77 450.7485,232.6462 469.8385,247.3662 " fill="none" id="Report-to-Repair" style="stroke:#181818;stroke-width:1;"/><polygon fill="#181818" points="474.59,251.03,469.9053,242.3667,470.6304,247.9768,465.0202,248.702,474.59,251.03" style="stroke:#181818;stroke-width:1;"/></g><!--link Report to SparePart--><g id="link_Report_SparePart"><path d="M402.72,206.99 C418.25,231.13 443.63,270.52 465.68,304.4 C469.31,309.97 469.939,310.9431 473.619,316.5531 " fill="none" id="Report-to-SparePart" style="stroke:#181818;stroke-width:1;"/><polygon fill="#181818" points="476.91,321.57,475.3182,311.8506,474.1675,317.3892,468.6289,316.2386,476.91,321.57" style="stroke:#181818;stroke-width:1;"/></g><!--link Report to Client--><g id="link_Report_Client"><path d="M402.72,161.81 C418.25,137.66 443.63,98.28 465.68,64.4 C469.31,58.83 469.939,57.8469 473.619,52.2369 " fill="none" id="Report-to-Client" style="stroke:#181818;stroke-width:1;"/><polygon fill="#181818" points="476.91,47.22,468.6289,52.5514,474.1675,51.4008,475.3182,56.9394,476.91,47.22" style="stroke:#181818;stroke-width:1;"/></g><!--link Report to Vehicle--><g id="link_Report_Vehicle"><path d="M405.8,170.83 C424.29,156.56 448.5592,137.8447 467.7192,123.0647 " fill="none" id="Report-to-Vehicle" style="stroke:#181818;stroke-width:1;"/><polygon fill="#181818" points="472.47,119.4,462.9007,121.7299,468.511,122.4539,467.787,128.0643,472.47,119.4" style="stroke:#181818;stroke-width:1;"/></g><!--link Report to Employee--><g id="link_Report_Employee"><path d="M405.8,184.4 C422.1,184.4 440.57,184.4 459.27,184.4 " fill="none" id="Report-to-Employee" style="stroke:#181818;stroke-width:1;"/><polygon fill="#181818" points="465.27,184.4,456.27,180.4,460.27,184.4,456.27,188.4,465.27,184.4" style="stroke:#181818;stroke-width:1;"/></g><!--SRC=[RL71Ri8m3BtdAwpUEV03aoR4RfEcTUB49KiDjPOcbUkAbQyd9Kq9fPSaxzbvVhQxFtAjPjr09uF5S38PwHkhB9u4n0FJkHQeYD48UQUw-KU59zrR-S5_URTqTWqw0HCEvDUi3- -af2l2TgkKDk8PFj7Ksf5HwjVthj8yGF6DhMVfZkv0U2b0Tp0n8rOcYB2tK9IrlyofkyXQvFk7BFQ8g62BP82TfV1Aw80r6Oi9xflM-W4nDxIlIA9Qvkb1BcpXI6lY5LTpwDLKbCfGI4ke35F4Bnt2AiqBDfktfx5axtjiVGAhRAQrAB3eyHd6CcijhP5vaNWbPcnqOgBat6sMD-qiOzBUCYhjxWO0]--></g></svg>