<svg xmlns="http://www.w3.org/2000/svg" xmlns:xlink="http://www.w3.org/1999/xlink" contentStyleType="text/css" height="372px" preserveAspectRatio="none" style="width:636px;height:372px;background:#FFFFFF;" version="1.1" viewBox="0 0 636 372" width="636px" zoomAndPan="magnify"><defs/><g><!--entity Mechanic--><g id="elem_Mechanic"><ellipse cx="32.0471" cy="156.5" fill="#F1F1F1" rx="8" ry="8" style="stroke:#181818;stroke-width:0.5;"/><path d="M32.0471,164.5 L32.0471,191.5 M19.0471,172.5 L45.0471,172.5 M32.0471,191.5 L19.0471,206.5 M32.0471,191.5 L45.0471,206.5 " fill="none" style="stroke:#181818;stroke-width:0.5;"/><text fill="#000000" font-family="sans-serif" font-size="11" lengthAdjust="spacing" textLength="52.0942" x="6" y="218.2104">Mechanic</text></g><!--entity ReportsView--><g id="elem_ReportsView"><path d="M122.09,118.59 L122.09,142.59 M122.09,130.59 L139.09,130.59 " fill="none" style="stroke:#181818;stroke-width:0.5;"/><ellipse cx="151.09" cy="130.59" fill="#F1F1F1" rx="12" ry="12" style="stroke:#181818;stroke-width:0.5;"/><text fill="#000000" font-family="sans-serif" font-size="11" lengthAdjust="spacing" textLength="42.6895" x="121.2453" y="156.8004">Reports</text><text fill="#000000" font-family="sans-serif" font-size="11" lengthAdjust="spacing" textLength="26.3452" x="129.4174" y="169.6051">View</text></g><!--entity ShowReportsController--><g id="elem_ShowReportsController"><ellipse cx="381.5351" cy="124.59" fill="#F1F1F1" rx="12" ry="12" style="stroke:#181818;stroke-width:0.5;"/><polygon fill="#181818" points="377.5351,112.59,383.5351,107.59,381.5351,112.59,383.5351,117.59,377.5351,112.59" style="stroke:#181818;stroke-width:1;"/><text fill="#000000" font-family="sans-serif" font-size="11" lengthAdjust="spacing" textLength="72.3701" x="345.35" y="150.8004">ShowReports</text><text fill="#000000" font-family="sans-serif" font-size="11" lengthAdjust="spacing" textLength="54.3501" x="354.36" y="163.6051">Controller</text></g><!--entity Client--><g id="elem_Client"><ellipse cx="601.92" cy="18" fill="#F1F1F1" rx="12" ry="12" style="stroke:#181818;stroke-width:0.5;"/><line style="stroke:#181818;stroke-width:0.5;" x1="589.92" x2="613.92" y1="32" y2="32"/><text fill="#000000" font-family="sans-serif" font-size="11" lengthAdjust="spacing" textLength="31.8452" x="585.9974" y="44.2104">Client</text></g><!--entity Vehicle--><g id="elem_Vehicle"><ellipse cx="601.9259" cy="98" fill="#F1F1F1" rx="12" ry="12" style="stroke:#181818;stroke-width:0.5;"/><line style="stroke:#181818;stroke-width:0.5;" x1="589.9259" x2="613.9259" y1="112" y2="112"/><text fill="#000000" font-family="sans-serif" font-size="11" lengthAdjust="spacing" textLength="40.1919" x="581.83" y="124.2104">Vehicle</text></g><!--entity Employee--><g id="elem_Employee"><ellipse cx="601.9195" cy="178" fill="#F1F1F1" rx="12" ry="12" style="stroke:#181818;stroke-width:0.5;"/><line style="stroke:#181818;stroke-width:0.5;" x1="589.9195" x2="613.9195" y1="192" y2="192"/><text fill="#000000" font-family="sans-serif" font-size="11" lengthAdjust="spacing" textLength="54.479" x="574.68" y="204.2104">Employee</text></g><!--entity EditReportView--><g id="elem_EditReportView"><path d="M235.7201,200.59 L235.7201,224.59 M235.7201,212.59 L252.7201,212.59 " fill="none" style="stroke:#181818;stroke-width:0.5;"/><ellipse cx="264.7201" cy="212.59" fill="#F1F1F1" rx="12" ry="12" style="stroke:#181818;stroke-width:0.5;"/><text fill="#000000" font-family="sans-serif" font-size="11" lengthAdjust="spacing" textLength="58.2603" x="227.09" y="238.8004">EditReport</text><text fill="#000000" font-family="sans-serif" font-size="11" lengthAdjust="spacing" textLength="26.3452" x="243.0475" y="251.6051">View</text></g><!--entity SetRepairsController--><g id="elem_SetRepairsController"><ellipse cx="381.5432" cy="217.59" fill="#F1F1F1" rx="12" ry="12" style="stroke:#181818;stroke-width:0.5;"/><polygon fill="#181818" points="377.5432,205.59,383.5432,200.59,381.5432,205.59,383.5432,210.59,377.5432,205.59" style="stroke:#181818;stroke-width:1;"/><text fill="#000000" font-family="sans-serif" font-size="11" lengthAdjust="spacing" textLength="59.5063" x="351.79" y="243.8004">SetRepairs</text><text fill="#000000" font-family="sans-serif" font-size="11" lengthAdjust="spacing" textLength="54.3501" x="354.3681" y="256.6051">Controller</text></g><!--entity Report--><g id="elem_Report"><ellipse cx="496.1992" cy="178" fill="#F1F1F1" rx="12" ry="12" style="stroke:#181818;stroke-width:0.5;"/><line style="stroke:#181818;stroke-width:0.5;" x1="484.1992" x2="508.1992" y1="192" y2="192"/><text fill="#000000" font-family="sans-serif" font-size="11" lengthAdjust="spacing" textLength="36.9585" x="477.72" y="204.2104">Report</text></g><!--entity Repair--><g id="elem_Repair"><ellipse cx="601.9262" cy="258" fill="#F1F1F1" rx="12" ry="12" style="stroke:#181818;stroke-width:0.5;"/><line style="stroke:#181818;stroke-width:0.5;" x1="589.9262" x2="613.9262" y1="272" y2="272"/><text fill="#000000" font-family="sans-serif" font-size="11" lengthAdjust="spacing" textLength="35.7124" x="584.07" y="284.2104">Repair</text></g><!--entity SparePart--><g id="elem_SparePart"><ellipse cx="601.9225" cy="338" fill="#F1F1F1" rx="12" ry="12" style="stroke:#181818;stroke-width:0.5;"/><line style="stroke:#181818;stroke-width:0.5;" x1="589.9225" x2="613.9225" y1="352" y2="352"/><text fill="#000000" font-family="sans-serif" font-size="11" lengthAdjust="spacing" textLength="54.2051" x="574.82" y="364.2104">SparePart</text></g><!--link Mechanic to ReportsView--><g id="link_Mechanic_ReportsView"><path d="M58.5,174.78 C76.42,168.02 94.6376,161.1415 112.1776,154.5115 " fill="none" id="Mechanic-to-ReportsView" style="stroke:#181818;stroke-width:1;"/><polygon fill="#181818" points="117.79,152.39,107.957,151.8306,113.113,154.1579,110.7857,159.3138,117.79,152.39" style="stroke:#181818;stroke-width:1;"/></g><!--link ReportsView to ShowReportsController--><g id="link_ReportsView_ShowReportsController"><path d="M167.18,142.8 C208.97,141.74 290.2119,139.6818 339.2119,138.4418 " fill="none" id="ReportsView-to-ShowReportsController" style="stroke:#181818;stroke-width:1;"/><polygon fill="#181818" points="345.21,138.29,336.1117,134.519,340.2116,138.4165,336.3141,142.5164,345.21,138.29" style="stroke:#181818;stroke-width:1;"/></g><!--link ShowReportsController to Report--><g id="link_ShowReportsController_Report"><path d="M418.19,152.27 C437.91,160.5 456.0328,168.0593 471.8728,174.6693 " fill="none" id="ShowReportsController-to-Report" style="stroke:#181818;stroke-width:1;"/><polygon fill="#181818" points="477.41,176.98,470.6446,169.8225,472.7957,175.0544,467.5637,177.2055,477.41,176.98" style="stroke:#181818;stroke-width:1;"/></g><!--link ReportsView to EditReportView--><g id="link_ReportsView_EditReportView"><path d="M167.54,160.99 C184.97,173.79 203.7845,187.6178 222.1345,201.0978 " fill="none" id="ReportsView-to-EditReportView" style="stroke:#181818;stroke-width:1;"/><polygon fill="#181818" points="226.97,204.65,222.0849,196.0981,222.9404,201.6899,217.3486,202.5454,226.97,204.65" style="stroke:#181818;stroke-width:1;"/></g><!--link Mechanic to EditReportView--><g id="link_Mechanic_EditReportView"><path d="M58.53,189.1 C100.37,196.82 177.3897,211.0309 220.9997,219.0809 " fill="none" id="Mechanic-to-EditReportView" style="stroke:#181818;stroke-width:1;"/><polygon fill="#181818" points="226.9,220.17,218.7756,214.6027,221.9831,219.2624,217.3234,222.4698,226.9,220.17" style="stroke:#181818;stroke-width:1;"/></g><!--link EditReportView to SetRepairsController--><g id="link_EditReportView_SetRepairsController"><path d="M285.83,226.56 C305.6,227.36 325.835,228.1752 345.675,228.9852 " fill="none" id="EditReportView-to-SetRepairsController" style="stroke:#181818;stroke-width:1;"/><polygon fill="#181818" points="351.67,229.23,342.8407,224.8662,346.6742,229.026,342.5143,232.8595,351.67,229.23" style="stroke:#181818;stroke-width:1;"/></g><!--link SetRepairsController to Report--><g id="link_SetRepairsController_Report"><path d="M411.55,218.55 C432.42,210.03 454.3251,201.0879 471.9851,193.8779 " fill="none" id="SetRepairsController-to-Report" style="stroke:#181818;stroke-width:1;"/><polygon fill="#181818" points="477.54,191.61,467.6958,191.3086,472.9109,193.4999,470.7196,198.7151,477.54,191.61" style="stroke:#181818;stroke-width:1;"/></g><!--link Report to Repair--><g id="link_Report_Repair"><path d="M514.8,197.97 C533.99,212.77 559.7485,232.6462 578.8385,247.3662 " fill="none" id="Report-to-Repair" style="stroke:#181818;stroke-width:1;"/><polygon fill="#181818" points="583.59,251.03,578.9053,242.3667,579.6304,247.9768,574.0202,248.702,583.59,251.03" style="stroke:#181818;stroke-width:1;"/></g><!--link Report to SparePart--><g id="link_Report_SparePart"><path d="M511.72,206.99 C527.25,231.13 552.63,270.52 574.68,304.4 C578.31,309.97 578.939,310.9431 582.619,316.5531 " fill="none" id="Report-to-SparePart" style="stroke:#181818;stroke-width:1;"/><polygon fill="#181818" points="585.91,321.57,584.3182,311.8506,583.1675,317.3892,577.6289,316.2386,585.91,321.57" style="stroke:#181818;stroke-width:1;"/></g><!--link Report to Client--><g id="link_Report_Client"><path d="M511.72,161.81 C527.25,137.66 552.63,98.28 574.68,64.4 C578.31,58.83 578.939,57.8469 582.619,52.2369 " fill="none" id="Report-to-Client" style="stroke:#181818;stroke-width:1;"/><polygon fill="#181818" points="585.91,47.22,577.6289,52.5514,583.1675,51.4008,584.3182,56.9394,585.91,47.22" style="stroke:#181818;stroke-width:1;"/></g><!--link Report to Vehicle--><g id="link_Report_Vehicle"><path d="M514.8,170.83 C533.29,156.56 557.5592,137.8447 576.7192,123.0647 " fill="none" id="Report-to-Vehicle" style="stroke:#181818;stroke-width:1;"/><polygon fill="#181818" points="581.47,119.4,571.9007,121.7299,577.511,122.4539,576.787,128.0643,581.47,119.4" style="stroke:#181818;stroke-width:1;"/></g><!--link Report to Employee--><g id="link_Report_Employee"><path d="M514.8,184.4 C531.1,184.4 549.57,184.4 568.27,184.4 " fill="none" id="Report-to-Employee" style="stroke:#181818;stroke-width:1;"/><polygon fill="#181818" points="574.27,184.4,565.27,180.4,569.27,184.4,565.27,188.4,574.27,184.4" style="stroke:#181818;stroke-width:1;"/></g><!--SRC=[RL7BRiCW4Bpp5QlSSyWFLAgYz5QfggkSSg5u4w-AmLglbRfVNnoCWnyNO6QMqJ2qF-GQpRg6LdgBOMKoqjLMMRmAY0UcMoLG4gCHyawrquqIhxgpyeM_ychfvcfq0YOioEkfD- -ae3-4mq4fRSGplAEfj2EZrBVlNAcvXzqdDfwblRWpuNq7keMH6R0omOIzXLrH-ViqUeoiHNvSoBIdea8iaXwEbi8feJDMP2mcUAeRwtl4FD2f98bkMQOdkOY50ws9Dr9DqZfKjCfG64ke22tYXmwoIdt1VlyogoKxFxJj1ZRPp4kjV1RFd0TOY7COOsmzUOlCGyGjCKCH8nCjfpQokV5FCoRzQqQbl_q7]--></g></svg>