<svg xmlns="http://www.w3.org/2000/svg" xmlns:xlink="http://www.w3.org/1999/xlink" contentStyleType="text/css" height="333px" preserveAspectRatio="none" style="width:1853px;height:333px;background:#FFFFFF;" version="1.1" viewBox="0 0 1853 333" width="1853px" zoomAndPan="magnify"><defs/><g><g id="elem_Mechanic"><rect fill="#F1F1F1" height="36.2969" style="stroke:#181818;stroke-width:0.5;" width="89.4688" x="7" y="187"/><text fill="#000000" font-family="sans-serif" font-size="14" lengthAdjust="spacing" textLength="75.4688" x="14" y="201.9951">: Mechanic</text><line style="stroke:#181818;stroke-width:0.5;" x1="8" x2="95.4688" y1="207.2969" y2="207.2969"/></g><g id="elem_ReportsView"><rect fill="#F1F1F1" height="52.5938" style="stroke:#181818;stroke-width:0.5;" width="77.499" x="392.22" y="99.85"/><text fill="#000000" font-family="sans-serif" font-size="14" lengthAdjust="spacing" textLength="63.499" x="399.22" y="114.8451">: Reports</text><text fill="#000000" font-family="sans-serif" font-size="14" lengthAdjust="spacing" textLength="33.5303" x="414.2044" y="131.142">View</text><line style="stroke:#181818;stroke-width:0.5;" x1="393.22" x2="468.719" y1="136.4438" y2="136.4438"/></g><g id="elem_ShowReportsController"><rect fill="#F1F1F1" height="52.5938" style="stroke:#181818;stroke-width:0.5;" width="115.2744" x="1004.65" y="92.85"/><text fill="#000000" font-family="sans-serif" font-size="14" lengthAdjust="spacing" textLength="101.2744" x="1011.65" y="107.8451">: ShowReports</text><text fill="#000000" font-family="sans-serif" font-size="14" lengthAdjust="spacing" textLength="69.1729" x="1027.7008" y="124.142">Controller</text><line style="stroke:#181818;stroke-width:0.5;" x1="1005.65" x2="1118.9244" y1="129.4438" y2="129.4438"/></g><g id="elem_EditReportView"><rect fill="#F1F1F1" height="52.5938" style="stroke:#181818;stroke-width:0.5;" width="97.3164" x="791.47" y="188.85"/><text fill="#000000" font-family="sans-serif" font-size="14" lengthAdjust="spacing" textLength="83.3164" x="798.47" y="203.8451">: EditReport</text><text fill="#000000" font-family="sans-serif" font-size="14" lengthAdjust="spacing" textLength="33.5303" x="823.3631" y="220.142">View</text><line style="stroke:#181818;stroke-width:0.5;" x1="792.47" x2="887.7864" y1="225.4438" y2="225.4438"/></g><g id="elem_SetRepairsController"><rect fill="#F1F1F1" height="52.5938" style="stroke:#181818;stroke-width:0.5;" width="98.9023" x="1235.79" y="188.85"/><text fill="#000000" font-family="sans-serif" font-size="14" lengthAdjust="spacing" textLength="84.9023" x="1242.79" y="203.8451">: SetRepairs</text><text fill="#000000" font-family="sans-serif" font-size="14" lengthAdjust="spacing" textLength="69.1729" x="1250.6547" y="220.142">Controller</text><line style="stroke:#181818;stroke-width:0.5;" x1="1236.79" x2="1333.6923" y1="225.4438" y2="225.4438"/></g><g id="elem_Report"><rect fill="#F1F1F1" height="36.2969" style="stroke:#181818;stroke-width:0.5;" width="70.2051" x="1623.69" y="149"/><text fill="#000000" font-family="sans-serif" font-size="14" lengthAdjust="spacing" textLength="56.2051" x="1630.69" y="163.9951">: Report</text><line style="stroke:#181818;stroke-width:0.5;" x1="1624.69" x2="1692.8951" y1="169.2969" y2="169.2969"/></g><g id="elem_Repair"><rect fill="#F1F1F1" height="36.2969" style="stroke:#181818;stroke-width:0.5;" width="68.6191" x="1766.84" y="7"/><text fill="#000000" font-family="sans-serif" font-size="14" lengthAdjust="spacing" textLength="54.6191" x="1773.84" y="21.9951">: Repair</text><line style="stroke:#181818;stroke-width:0.5;" x1="1767.84" x2="1834.4591" y1="27.2969" y2="27.2969"/></g><g id="elem_SparePart"><rect fill="#F1F1F1" height="36.2969" style="stroke:#181818;stroke-width:0.5;" width="92.1553" x="1755.07" y="78"/><text fill="#000000" font-family="sans-serif" font-size="14" lengthAdjust="spacing" textLength="78.1553" x="1762.07" y="92.9951">: SparePart</text><line style="stroke:#181818;stroke-width:0.5;" x1="1756.07" x2="1846.2253" y1="98.2969" y2="98.2969"/></g><g id="elem_Client"><rect fill="#F1F1F1" height="36.2969" style="stroke:#181818;stroke-width:0.5;" width="63.6973" x="1769.3" y="149"/><text fill="#000000" font-family="sans-serif" font-size="14" lengthAdjust="spacing" textLength="49.6973" x="1776.3" y="163.9951">: Client</text><line style="stroke:#181818;stroke-width:0.5;" x1="1770.3" x2="1831.9973" y1="169.2969" y2="169.2969"/></g><g id="elem_Vehicle"><rect fill="#F1F1F1" height="36.2969" style="stroke:#181818;stroke-width:0.5;" width="74.3203" x="1763.98" y="220"/><text fill="#000000" font-family="sans-serif" font-size="14" lengthAdjust="spacing" textLength="60.3203" x="1770.98" y="234.9951">: Vehicle</text><line style="stroke:#181818;stroke-width:0.5;" x1="1764.98" x2="1837.3003" y1="240.2969" y2="240.2969"/></g><g id="elem_Employee"><rect fill="#F1F1F1" height="36.2969" style="stroke:#181818;stroke-width:0.5;" width="92.5039" x="1754.89" y="291"/><text fill="#000000" font-family="sans-serif" font-size="14" lengthAdjust="spacing" textLength="78.5039" x="1761.89" y="305.9951">: Employee</text><line style="stroke:#181818;stroke-width:0.5;" x1="1755.89" x2="1846.3939" y1="311.2969" y2="311.2969"/></g><!--link Mechanic to ReportsView--><g id="link_Mechanic_ReportsView"><path codeLine="15" d="M96.75,195.93 C171.38,180.31 321.5,148.87 391.9,134.12 " fill="none" id="Mechanic-ReportsView" style="stroke:#181818;stroke-width:1;"/><polygon fill="#000000" points="162.5863,132.6915,153.1308,131.669,154.3356,137.4221,162.5863,132.6915" style="stroke:#000000;stroke-width:1;"/><text fill="#000000" font-family="sans-serif" font-size="13" lengthAdjust="spacing" textLength="98.7251" x="165.6924" y="138.2169">1: getReports()</text><text fill="#000000" font-family="sans-serif" font-size="13" lengthAdjust="spacing" textLength="158.0376" x="131.6023" y="153.3497">4: showReport(reportID)</text></g><!--link ReportsView to ShowReportsController--><g id="link_ReportsView_ShowReportsController"><path codeLine="16" d="M469.92,125.73 C576.35,124.55 878.12,121.19 1004.51,119.78 " fill="none" id="ReportsView-ShowReportsController" style="stroke:#181818;stroke-width:1;"/><polygon fill="#000000" points="621.0666,99.6608,611.9894,96.8227,612.0548,102.7002,621.0666,99.6608" style="stroke:#000000;stroke-width:1;"/><text fill="#000000" font-family="sans-serif" font-size="13" lengthAdjust="spacing" textLength="98.7251" x="624.0669" y="104.2169">2: getReports()</text><text fill="#000000" font-family="sans-serif" font-size="13" lengthAdjust="spacing" textLength="145.7866" x="596.1023" y="119.3497">5: getReport(reportID)</text></g><!--link ShowReportsController to Report--><g id="link_ShowReportsController_Report"><path codeLine="17" d="M1120.22,115.2 C1218.23,109.78 1424.58,104.51 1593.69,141.15 C1603.55,143.29 1613.84,146.82 1623.22,150.61 " fill="none" id="ShowReportsController-Report" style="stroke:#181818;stroke-width:1;"/><polygon fill="#000000" points="1248.2277,104.0675,1239.4113,100.5007,1238.9985,106.364,1248.2277,104.0675" style="stroke:#000000;stroke-width:1;"/><text fill="#000000" font-family="sans-serif" font-size="13" lengthAdjust="spacing" textLength="79.314" x="1252.24" y="108.2169">3: getData()</text></g><!--link ReportsView to EditReportView--><g id="link_ReportsView_EditReportView"><path codeLine="19" d="M469.99,143.32 C497.61,155.11 536.19,170.2 571.47,179.15 C646.91,198.29 737.06,207.74 791.12,212.03 " fill="none" id="ReportsView-EditReportView" style="stroke:#181818;stroke-width:1;"/><polygon fill="#000000" points="581.3593,171.7625,573.1293,166.9962,571.8995,172.7439,581.3593,171.7625" style="stroke:#000000;stroke-width:1;"/><text fill="#000000" font-family="sans-serif" font-size="13" lengthAdjust="spacing" textLength="175.2334" x="585.47" y="175.2169">6: showReport(reportData)</text></g><!--link Mechanic to EditReportView--><g id="link_Mechanic_EditReportView"><path codeLine="21" d="M96.77,207.73 C149.81,210.7 241.62,215.39 320.47,217.15 C493.76,221.03 699.71,217.95 791.21,216.18 " fill="none" id="Mechanic-EditReportView" style="stroke:#181818;stroke-width:1;"/><polygon fill="#000000" points="357.0253,178.7772,348.0166,175.7285,347.9451,181.6059,357.0253,178.7772" style="stroke:#000000;stroke-width:1;"/><text fill="#000000" font-family="sans-serif" font-size="13" lengthAdjust="spacing" textLength="155.0098" x="360.0257" y="183.2169">7: setRepair(date, time,</text><text fill="#000000" font-family="sans-serif" font-size="13" lengthAdjust="spacing" textLength="172.0977" x="342.9156" y="198.3497">hoursWorked, description)</text><text fill="#000000" font-family="sans-serif" font-size="13" lengthAdjust="spacing" textLength="214.9888" x="325.6023" y="213.4825">11: setSparePart(sparePartCode)</text></g><!--link EditReportView to SetRepairsController--><g id="link_EditReportView_SetRepairsController"><path codeLine="22" d="M888.97,215.15 C973.9,215.15 1150.08,215.15 1235.59,215.15 " fill="none" id="EditReportView-SetRepairsController" style="stroke:#181818;stroke-width:1;"/><polygon fill="#000000" points="955.6377,176.7164,946.5926,173.7775,946.5926,179.6553,955.6377,176.7164" style="stroke:#000000;stroke-width:1;"/><text fill="#000000" font-family="sans-serif" font-size="13" lengthAdjust="spacing" textLength="220.6572" x="958.6377" y="181.2169">8: setRepair(reportID, repairData)</text><text fill="#000000" font-family="sans-serif" font-size="13" lengthAdjust="spacing" textLength="277.0879" x="923.9223" y="196.3497">12: setSparePart(reportID, sparePartCode)</text><polygon fill="#000000" points="971.9804,206.982,981.0255,209.921,981.0255,204.0431,971.9804,206.982" style="stroke:#000000;stroke-width:1;"/><text fill="#000000" font-family="sans-serif" font-size="13" lengthAdjust="spacing" textLength="167.9717" x="984.9804" y="211.4825">10: showResult(message)</text></g><!--link SetRepairsController to Report--><g id="link_SetRepairsController_Report"><path codeLine="23" d="M1335.02,209.61 C1395.71,202.6 1502.47,189.9 1593.69,177.15 C1603.28,175.81 1613.66,174.24 1623.22,172.75 " fill="none" id="SetRepairsController-Report" style="stroke:#181818;stroke-width:1;"/><polygon fill="#000000" points="1403.4301,153.0821,1394.0853,151.3144,1394.831,157.1448,1403.4301,153.0821" style="stroke:#000000;stroke-width:1;"/><text fill="#000000" font-family="sans-serif" font-size="13" lengthAdjust="spacing" textLength="158.5581" x="1406.4705" y="158.2169">9: setRepair(repairData)</text><text fill="#000000" font-family="sans-serif" font-size="13" lengthAdjust="spacing" textLength="222.9868" x="1369.8223" y="173.3497">13: setSpareParte(sparePartCode)</text></g><!--link Report to Repair--><g id="link_Report_Repair"><path codeLine="24" d="M1674.32,148.8 C1692.21,126.71 1724.01,88.99 1754.89,60.15 C1760.99,54.46 1767.96,48.73 1774.57,43.61 " fill="none" id="Report-Repair" style="stroke:#181818;stroke-width:1;"/></g><!--link Report to SparePart--><g id="link_Report_SparePart"><path codeLine="25" d="M1694.12,149.78 C1715.23,139.11 1742.24,125.45 1763.71,114.58 " fill="none" id="Report-SparePart" style="stroke:#181818;stroke-width:1;"/></g><!--link Report to Client--><g id="link_Report_Client"><path codeLine="26" d="M1694.12,167.15 C1717.01,167.15 1746.85,167.15 1769.04,167.15 " fill="none" id="Report-Client" style="stroke:#181818;stroke-width:1;"/></g><!--link Report to Vehicle--><g id="link_Report_Vehicle"><path codeLine="27" d="M1694.12,184.52 C1715.23,195.19 1742.24,208.86 1763.71,219.72 " fill="none" id="Report-Vehicle" style="stroke:#181818;stroke-width:1;"/></g><!--link Report to Employee--><g id="link_Report_Employee"><path codeLine="28" d="M1674.32,185.5 C1692.21,207.59 1724.01,245.31 1754.89,274.15 C1760.99,279.85 1767.96,285.57 1774.57,290.7 " fill="none" id="Report-Employee" style="stroke:#181818;stroke-width:1;"/></g><!--SRC=[RLDDJyCm3BtdLrYSMccJsCPdXRXi73WW8P36PPVGcZNGDLEIQUBVqxfDuvHUDiVFpyzVhV3BWTDWrBvqK2Y3kLEw5a9_VZScN6JmWdafQvLVWBJ3W-5lUDJ6sLszLNYceDxJlbdSUwdFG-nQryxega9338O5X76V2kKwdCa4vrW9MxzKPa9eW2PrkdIiYHXhU1vhJAvub0PVPKyTNYnYNIciExWp6RR5KkKL4jZRlFV3iTA_sC7-8OJV1CpdVE2GmICiCjXZFnkRfB2huIe3EmmvCVJtl4a5fpQP9XT1EPV_Srup5qivdMCeaxAjYBgHJYQf61SHBxODlvcelYMdyHnY8WdTDao_ywIG3cVWrA7vtTMbFXdxeSqF5ZCeqEP67TlZfzuM2o8EgqoijzQwm5ICfDhHJPmMbN37I_1Zce4X1tL1WikHO8YCfIduqW_4dYgN7D1QkM-W1p5PHJpx-r4zKHMhk0eSzztdwJAs7q5mXBCFllxMWyFVT_3ua_u3]--></g></svg>