<svg xmlns="http://www.w3.org/2000/svg" xmlns:xlink="http://www.w3.org/1999/xlink" contentStyleType="text/css" height="333px" preserveAspectRatio="none" style="width:1500px;height:333px;background:#FFFFFF;" version="1.1" viewBox="0 0 1500 333" width="1500px" zoomAndPan="magnify"><defs/><g><g id="elem_Mechanic"><rect fill="#F1F1F1" height="36.2969" style="stroke:#181818;stroke-width:0.5;" width="89.4688" x="7" y="150"/><text fill="#000000" font-family="sans-serif" font-size="14" lengthAdjust="spacing" textLength="75.4688" x="14" y="164.9951">: Mechanic</text><line style="stroke:#181818;stroke-width:0.5;" x1="8" x2="95.4688" y1="170.2969" y2="170.2969"/></g><g id="elem_ReportsView"><rect fill="#F1F1F1" height="52.5938" style="stroke:#181818;stroke-width:0.5;" width="77.499" x="440.38" y="96.85"/><text fill="#000000" font-family="sans-serif" font-size="14" lengthAdjust="spacing" textLength="63.499" x="447.38" y="111.8451">: Reports</text><text fill="#000000" font-family="sans-serif" font-size="14" lengthAdjust="spacing" textLength="33.5303" x="462.3644" y="128.142">View</text><line style="stroke:#181818;stroke-width:0.5;" x1="441.38" x2="516.879" y1="133.4438" y2="133.4438"/></g><g id="elem_ShowReportsController"><rect fill="#F1F1F1" height="52.5938" style="stroke:#181818;stroke-width:0.5;" width="115.2744" x="866.79" y="96.85"/><text fill="#000000" font-family="sans-serif" font-size="14" lengthAdjust="spacing" textLength="101.2744" x="873.79" y="111.8451">: ShowReports</text><text fill="#000000" font-family="sans-serif" font-size="14" lengthAdjust="spacing" textLength="69.1729" x="889.8408" y="128.142">Controller</text><line style="stroke:#181818;stroke-width:0.5;" x1="867.79" x2="981.0644" y1="133.4438" y2="133.4438"/></g><g id="elem_EditReportView"><rect fill="#F1F1F1" height="52.5938" style="stroke:#181818;stroke-width:0.5;" width="97.3164" x="430.47" y="184.85"/><text fill="#000000" font-family="sans-serif" font-size="14" lengthAdjust="spacing" textLength="83.3164" x="437.47" y="199.8451">: EditReport</text><text fill="#000000" font-family="sans-serif" font-size="14" lengthAdjust="spacing" textLength="33.5303" x="462.3631" y="216.142">View</text><line style="stroke:#181818;stroke-width:0.5;" x1="431.47" x2="526.7864" y1="221.4438" y2="221.4438"/></g><g id="elem_SetRepairsController"><rect fill="#F1F1F1" height="52.5938" style="stroke:#181818;stroke-width:0.5;" width="98.9023" x="874.97" y="184.85"/><text fill="#000000" font-family="sans-serif" font-size="14" lengthAdjust="spacing" textLength="84.9023" x="881.97" y="199.8451">: SetRepairs</text><text fill="#000000" font-family="sans-serif" font-size="14" lengthAdjust="spacing" textLength="69.1729" x="889.8347" y="216.142">Controller</text><line style="stroke:#181818;stroke-width:0.5;" x1="875.97" x2="972.8723" y1="221.4438" y2="221.4438"/></g><g id="elem_Report"><rect fill="#F1F1F1" height="36.2969" style="stroke:#181818;stroke-width:0.5;" width="70.2051" x="1271.06" y="149"/><text fill="#000000" font-family="sans-serif" font-size="14" lengthAdjust="spacing" textLength="56.2051" x="1278.06" y="163.9951">: Report</text><line style="stroke:#181818;stroke-width:0.5;" x1="1272.06" x2="1340.2651" y1="169.2969" y2="169.2969"/></g><g id="elem_Repair"><rect fill="#F1F1F1" height="36.2969" style="stroke:#181818;stroke-width:0.5;" width="68.6191" x="1414.21" y="7"/><text fill="#000000" font-family="sans-serif" font-size="14" lengthAdjust="spacing" textLength="54.6191" x="1421.21" y="21.9951">: Repair</text><line style="stroke:#181818;stroke-width:0.5;" x1="1415.21" x2="1481.8291" y1="27.2969" y2="27.2969"/></g><g id="elem_SparePart"><rect fill="#F1F1F1" height="36.2969" style="stroke:#181818;stroke-width:0.5;" width="92.1553" x="1402.44" y="78"/><text fill="#000000" font-family="sans-serif" font-size="14" lengthAdjust="spacing" textLength="78.1553" x="1409.44" y="92.9951">: SparePart</text><line style="stroke:#181818;stroke-width:0.5;" x1="1403.44" x2="1493.5953" y1="98.2969" y2="98.2969"/></g><g id="elem_Client"><rect fill="#F1F1F1" height="36.2969" style="stroke:#181818;stroke-width:0.5;" width="63.6973" x="1416.67" y="149"/><text fill="#000000" font-family="sans-serif" font-size="14" lengthAdjust="spacing" textLength="49.6973" x="1423.67" y="163.9951">: Client</text><line style="stroke:#181818;stroke-width:0.5;" x1="1417.67" x2="1479.3673" y1="169.2969" y2="169.2969"/></g><g id="elem_Vehicle"><rect fill="#F1F1F1" height="36.2969" style="stroke:#181818;stroke-width:0.5;" width="74.3203" x="1411.36" y="220"/><text fill="#000000" font-family="sans-serif" font-size="14" lengthAdjust="spacing" textLength="60.3203" x="1418.36" y="234.9951">: Vehicle</text><line style="stroke:#181818;stroke-width:0.5;" x1="1412.36" x2="1484.6803" y1="240.2969" y2="240.2969"/></g><g id="elem_Employee"><rect fill="#F1F1F1" height="36.2969" style="stroke:#181818;stroke-width:0.5;" width="92.5039" x="1402.26" y="291"/><text fill="#000000" font-family="sans-serif" font-size="14" lengthAdjust="spacing" textLength="78.5039" x="1409.26" y="305.9951">: Employee</text><line style="stroke:#181818;stroke-width:0.5;" x1="1403.26" x2="1493.7639" y1="311.2969" y2="311.2969"/></g><!--link Mechanic to ReportsView--><g id="link_Mechanic_ReportsView"><path codeLine="15" d="M96.66,163.51 C180.29,154.66 361.11,135.53 440.01,127.18 " fill="none" id="Mechanic-ReportsView" style="stroke:#181818;stroke-width:1;"/><polygon fill="#000000" points="216.9422,123.1903,207.6381,121.2194,208.2566,127.0647,216.9422,123.1903" style="stroke:#000000;stroke-width:1;"/><text fill="#000000" font-family="sans-serif" font-size="13" lengthAdjust="spacing" textLength="98.7251" x="220.97" y="128.2169">1: getReports()</text></g><!--link ReportsView to ShowReportsController--><g id="link_ReportsView_ShowReportsController"><path codeLine="16" d="M518.31,123.15 C596.43,123.15 774.89,123.15 866.64,123.15 " fill="none" id="ReportsView-ShowReportsController" style="stroke:#181818;stroke-width:1;"/><polygon fill="#000000" points="650.79,114.7164,641.7449,111.7775,641.7449,117.6553,650.79,114.7164" style="stroke:#000000;stroke-width:1;"/><text fill="#000000" font-family="sans-serif" font-size="13" lengthAdjust="spacing" textLength="98.7251" x="654.79" y="119.2169">2: getReports()</text></g><!--link ShowReportsController to Report--><g id="link_ShowReportsController_Report"><path codeLine="17" d="M982.27,129.74 C1062.14,138.99 1205.1,155.56 1270.63,163.15 " fill="none" id="ShowReportsController-Report" style="stroke:#181818;stroke-width:1;"/><polygon fill="#000000" points="1089.5268,126.2919,1080.88,122.3315,1080.2035,128.1702,1089.5268,126.2919" style="stroke:#000000;stroke-width:1;"/><text fill="#000000" font-family="sans-serif" font-size="13" lengthAdjust="spacing" textLength="79.314" x="1093.56" y="130.2169">3: getData()</text></g><!--link Mechanic to EditReportView--><g id="link_Mechanic_EditReportView"><path codeLine="19" d="M75.03,186.69 C88.89,196.97 107.61,208.75 126.47,214.15 C231.39,244.19 361.24,230.82 430.05,220.01 " fill="none" id="Mechanic-EditReportView" style="stroke:#181818;stroke-width:1;"/><polygon fill="#000000" points="158.8683,176.1836,150.1374,172.4124,149.5882,178.2645,158.8683,176.1836" style="stroke:#000000;stroke-width:1;"/><text fill="#000000" font-family="sans-serif" font-size="13" lengthAdjust="spacing" textLength="217.1089" x="161.8902" y="180.2169">4: setRepair(reportID, date, time,</text><text fill="#000000" font-family="sans-serif" font-size="13" lengthAdjust="spacing" textLength="172.0977" x="175.8296" y="195.3497">hoursWorked, description)</text><text fill="#000000" font-family="sans-serif" font-size="13" lengthAdjust="spacing" textLength="268.8169" x="131.6023" y="210.4825">8: setSparePart(reportID, sparePartCode)</text></g><!--link EditReportView to SetRepairsController--><g id="link_EditReportView_SetRepairsController"><path codeLine="20" d="M527.99,211.15 C612.95,211.15 789.21,211.15 874.75,211.15 " fill="none" id="EditReportView-SetRepairsController" style="stroke:#181818;stroke-width:1;"/><polygon fill="#000000" points="590.5022,172.7164,581.4571,169.7775,581.4571,175.6553,590.5022,172.7164" style="stroke:#000000;stroke-width:1;"/><text fill="#000000" font-family="sans-serif" font-size="13" lengthAdjust="spacing" textLength="220.6572" x="593.5022" y="177.2169">5: setRepair(reportID, repairData)</text><text fill="#000000" font-family="sans-serif" font-size="13" lengthAdjust="spacing" textLength="268.8169" x="562.9223" y="192.3497">9: setSparePart(reportID, sparePartCode)</text><polygon fill="#000000" points="640.1923,202.982,649.2374,205.921,649.2374,200.0431,640.1923,202.982" style="stroke:#000000;stroke-width:1;"/><text fill="#000000" font-family="sans-serif" font-size="13" lengthAdjust="spacing" textLength="101.2769" x="653.1923" y="207.4825">7: showResult()</text></g><!--link SetRepairsController to Report--><g id="link_SetRepairsController_Report"><path codeLine="21" d="M974.19,215.58 C1036.99,219.87 1149.02,222.7 1241.06,199.15 C1252.51,196.22 1264.29,191.06 1274.57,185.73 " fill="none" id="SetRepairsController-Report" style="stroke:#181818;stroke-width:1;"/><polygon fill="#000000" points="1050.816,175.222,1041.5246,173.1919,1042.1059,179.0409,1050.816,175.222" style="stroke:#000000;stroke-width:1;"/><text fill="#000000" font-family="sans-serif" font-size="13" lengthAdjust="spacing" textLength="158.5581" x="1053.8405" y="180.2169">6: setRepair(repairData)</text><text fill="#000000" font-family="sans-serif" font-size="13" lengthAdjust="spacing" textLength="222.9868" x="1017.1923" y="195.3497">10: setSpareParte(sparePartCode)</text></g><!--link Report to Repair--><g id="link_Report_Repair"><path codeLine="22" d="M1321.7,148.8 C1339.58,126.71 1371.39,88.99 1402.26,60.15 C1408.36,54.46 1415.33,48.73 1421.94,43.61 " fill="none" id="Report-Repair" style="stroke:#181818;stroke-width:1;"/></g><!--link Report to SparePart--><g id="link_Report_SparePart"><path codeLine="23" d="M1341.5,149.78 C1362.6,139.11 1389.61,125.45 1411.08,114.58 " fill="none" id="Report-SparePart" style="stroke:#181818;stroke-width:1;"/></g><!--link Report to Client--><g id="link_Report_Client"><path codeLine="24" d="M1341.5,167.15 C1364.38,167.15 1394.22,167.15 1416.41,167.15 " fill="none" id="Report-Client" style="stroke:#181818;stroke-width:1;"/></g><!--link Report to Vehicle--><g id="link_Report_Vehicle"><path codeLine="25" d="M1341.5,184.52 C1362.6,195.19 1389.61,208.86 1411.08,219.72 " fill="none" id="Report-Vehicle" style="stroke:#181818;stroke-width:1;"/></g><!--link Report to Employee--><g id="link_Report_Employee"><path codeLine="26" d="M1321.7,185.5 C1339.58,207.59 1371.39,245.31 1402.26,274.15 C1408.36,279.85 1415.33,285.57 1421.94,290.7 " fill="none" id="Report-Employee" style="stroke:#181818;stroke-width:1;"/></g><!--SRC=[ZL8zJyCm4DtzAqvCYTHAb6yYnD8oC20XaChInIH7Ot3Zo7PLyU-ndJY-H1bOBFkzU_VkpYVnou9LeCM-jb09ZQKLgc5CVNwxAvmLy89bpHjHdW4tmuFmRzWgRSsksGeyXQ0UyMyIzrwhqn2xLetLIahKGK6un13jKoLinnER14wTqEDSw1cZWPhrwTAH9iQSqqNENQbZopM-ybuwl4Z4MWfiEhgx4cwBjIWb1hA_qzuFhLI_sD7nmLZy2LWkwS2XW4TO5R37VZOcondbNVZij8FmOYASZnmSW-OoQ3RSSYSObJN-e11yLO29Nv3fm3rl5b1nYmkmuk3ENLEhepOVIlzWvIWqfHQjtyhSSN0NCWmZ9abCnDQgmfnDt7tVCvyVghgUhqe7m7SMdE__wUnZRrric9qvIflbyC1cpSUJl9cKGSrNvsDtp2RjzdcwZ7ux4v3sCM7z4YOWBbv2ugxz0G00]--></g></svg>