<?xml version="1.0" encoding="us-ascii" standalone="no"?><svg xmlns="http://www.w3.org/2000/svg" xmlns:xlink="http://www.w3.org/1999/xlink" contentStyleType="text/css" height="677px" preserveAspectRatio="none" style="width:912px;height:677px;background:#FFFFFF;" version="1.1" viewBox="0 0 912 677" width="912px" zoomAndPan="magnify"><defs/><g><rect fill="#FFFFFF" height="21.1328" style="stroke:#181818;stroke-width:1.0;" width="10" x="21" y="91.2969"/><rect fill="#FFFFFF" height="29.1328" style="stroke:#181818;stroke-width:1.0;" width="10" x="92" y="112.4297"/><rect fill="#FFFFFF" height="58.2656" style="stroke:#181818;stroke-width:1.0;" width="10" x="190.5" y="141.5625"/><rect fill="#FFFFFF" height="29.1328" style="stroke:#181818;stroke-width:1.0;" width="10" x="190.5" y="549.4219"/><rect fill="#FFFFFF" height="29.1328" style="stroke:#181818;stroke-width:1.0;" width="10" x="365.5" y="199.8281"/><rect fill="#FFFFFF" height="29.1328" style="stroke:#181818;stroke-width:1.0;" width="10" x="365.5" y="520.2891"/><rect fill="#FFFFFF" height="29.1328" style="stroke:#181818;stroke-width:1.0;" width="10" x="483.5" y="228.9609"/><rect fill="#FFFFFF" height="29.1328" style="stroke:#181818;stroke-width:1.0;" width="10" x="483.5" y="491.1563"/><rect fill="#FFFFFF" height="29.1328" style="stroke:#181818;stroke-width:1.0;" width="10" x="585.5" y="258.0938"/><rect fill="#FFFFFF" height="58.2656" style="stroke:#181818;stroke-width:1.0;" width="10" x="585.5" y="345.4922"/><rect fill="#FFFFFF" height="29.1328" style="stroke:#181818;stroke-width:1.0;" width="10" x="585.5" y="462.0234"/><rect fill="#FFFFFF" height="58.2656" style="stroke:#181818;stroke-width:1.0;" width="10" x="693.5" y="287.2266"/><rect fill="#FFFFFF" height="29.1328" style="stroke:#181818;stroke-width:1.0;" width="10" x="774.5" y="432.8906"/><rect fill="#FFFFFF" height="29.1328" style="stroke:#181818;stroke-width:1.0;" width="10" x="880.5" y="403.7578"/><line style="stroke:#181818;stroke-width:0.5;stroke-dasharray:5.0,5.0;" x1="26" x2="26" y1="81.2969" y2="596.5547"/><line style="stroke:#181818;stroke-width:0.5;stroke-dasharray:5.0,5.0;" x1="97" x2="97" y1="81.2969" y2="596.5547"/><line style="stroke:#181818;stroke-width:0.5;stroke-dasharray:5.0,5.0;" x1="195" x2="195" y1="81.2969" y2="596.5547"/><line style="stroke:#181818;stroke-width:0.5;stroke-dasharray:5.0,5.0;" x1="291" x2="291" y1="81.2969" y2="596.5547"/><line style="stroke:#181818;stroke-width:0.5;stroke-dasharray:5.0,5.0;" x1="370" x2="370" y1="81.2969" y2="596.5547"/><line style="stroke:#181818;stroke-width:0.5;stroke-dasharray:5.0,5.0;" x1="488.5" x2="488.5" y1="81.2969" y2="596.5547"/><line style="stroke:#181818;stroke-width:0.5;stroke-dasharray:5.0,5.0;" x1="590.5" x2="590.5" y1="81.2969" y2="596.5547"/><line style="stroke:#181818;stroke-width:0.5;stroke-dasharray:5.0,5.0;" x1="698" x2="698" y1="81.2969" y2="596.5547"/><line style="stroke:#181818;stroke-width:0.5;stroke-dasharray:5.0,5.0;" x1="779" x2="779" y1="81.2969" y2="596.5547"/><line style="stroke:#181818;stroke-width:0.5;stroke-dasharray:5.0,5.0;" x1="885" x2="885" y1="81.2969" y2="596.5547"/><text fill="#000000" font-family="sans-serif" font-size="14" lengthAdjust="spacing" textLength="36" x="5" y="77.9951">Actor</text><ellipse cx="26" cy="13.5" fill="#FFFFFF" rx="8" ry="8" style="stroke:#181818;stroke-width:0.5;"/><path d="M26,21.5 L26,48.5 M13,29.5 L39,29.5 M26,48.5 L13,63.5 M26,48.5 L39,63.5 " fill="none" style="stroke:#181818;stroke-width:0.5;"/><text fill="#000000" font-family="sans-serif" font-size="14" lengthAdjust="spacing" textLength="36" x="5" y="608.5498">Actor</text><ellipse cx="26" cy="620.3516" fill="#FFFFFF" rx="8" ry="8" style="stroke:#181818;stroke-width:0.5;"/><path d="M26,628.3516 L26,655.3516 M13,636.3516 L39,636.3516 M26,655.3516 L13,670.3516 M26,655.3516 L39,670.3516 " fill="none" style="stroke:#181818;stroke-width:0.5;"/><text fill="#000000" font-family="sans-serif" font-size="14" lengthAdjust="spacing" textLength="74" x="57" y="77.9951">XTemplate</text><path d="M76.5,37 L76.5,61 M76.5,49 L93.5,49 " fill="none" style="stroke:#181818;stroke-width:0.5;"/><ellipse cx="105.5" cy="49" fill="#FFFFFF" rx="12" ry="12" style="stroke:#181818;stroke-width:0.5;"/><text fill="#000000" font-family="sans-serif" font-size="14" lengthAdjust="spacing" textLength="74" x="57" y="608.5498">XTemplate</text><path d="M76.5,615.8516 L76.5,639.8516 M76.5,627.8516 L93.5,627.8516 " fill="none" style="stroke:#181818;stroke-width:0.5;"/><ellipse cx="105.5" cy="627.8516" fill="#FFFFFF" rx="12" ry="12" style="stroke:#181818;stroke-width:0.5;"/><text fill="#000000" font-family="sans-serif" font-size="14" lengthAdjust="spacing" textLength="91" x="147" y="77.9951">XComponent</text><path d="M175,37 L175,61 M175,49 L192,49 " fill="none" style="stroke:#181818;stroke-width:0.5;"/><ellipse cx="204" cy="49" fill="#FFFFFF" rx="12" ry="12" style="stroke:#181818;stroke-width:0.5;"/><text fill="#000000" font-family="sans-serif" font-size="14" lengthAdjust="spacing" textLength="91" x="147" y="608.5498">XComponent</text><path d="M175,615.8516 L175,639.8516 M175,627.8516 L192,627.8516 " fill="none" style="stroke:#181818;stroke-width:0.5;"/><ellipse cx="204" cy="627.8516" fill="#FFFFFF" rx="12" ry="12" style="stroke:#181818;stroke-width:0.5;"/><text fill="#000000" font-family="sans-serif" font-size="14" lengthAdjust="spacing" textLength="68" x="254" y="77.9951">XValidator</text><ellipse cx="291" cy="49" fill="#FFFFFF" rx="12" ry="12" style="stroke:#181818;stroke-width:0.5;"/><polygon fill="#181818" points="287,37,293,32,291,37,293,42,287,37" style="stroke:#181818;stroke-width:1.0;"/><text fill="#000000" font-family="sans-serif" font-size="14" lengthAdjust="spacing" textLength="68" x="254" y="608.5498">XValidator</text><ellipse cx="291" cy="627.8516" fill="#FFFFFF" rx="12" ry="12" style="stroke:#181818;stroke-width:0.5;"/><polygon fill="#181818" points="287,615.8516,293,610.8516,291,615.8516,293,620.8516,287,615.8516" style="stroke:#181818;stroke-width:1.0;"/><text fill="#000000" font-family="sans-serif" font-size="14" lengthAdjust="spacing" textLength="59" x="338" y="77.9951">XService</text><ellipse cx="370.5" cy="49" fill="#FFFFFF" rx="12" ry="12" style="stroke:#181818;stroke-width:0.5;"/><polygon fill="#181818" points="366.5,37,372.5,32,370.5,37,372.5,42,366.5,37" style="stroke:#181818;stroke-width:1.0;"/><text fill="#000000" font-family="sans-serif" font-size="14" lengthAdjust="spacing" textLength="59" x="338" y="608.5498">XService</text><ellipse cx="370.5" cy="627.8516" fill="#FFFFFF" rx="12" ry="12" style="stroke:#181818;stroke-width:0.5;"/><polygon fill="#181818" points="366.5,615.8516,372.5,610.8516,370.5,615.8516,372.5,620.8516,366.5,615.8516" style="stroke:#181818;stroke-width:1.0;"/><text fill="#000000" font-family="sans-serif" font-size="14" lengthAdjust="spacing" textLength="76" x="447.5" y="77.9951">XResource</text><ellipse cx="488.5" cy="49" fill="#FFFFFF" rx="12" ry="12" style="stroke:#181818;stroke-width:0.5;"/><polygon fill="#181818" points="484.5,37,490.5,32,488.5,37,490.5,42,484.5,37" style="stroke:#181818;stroke-width:1.0;"/><text fill="#000000" font-family="sans-serif" font-size="14" lengthAdjust="spacing" textLength="76" x="447.5" y="608.5498">XResource</text><ellipse cx="488.5" cy="627.8516" fill="#FFFFFF" rx="12" ry="12" style="stroke:#181818;stroke-width:0.5;"/><polygon fill="#181818" points="484.5,615.8516,490.5,610.8516,488.5,615.8516,490.5,620.8516,484.5,615.8516" style="stroke:#181818;stroke-width:1.0;"/><text fill="#000000" font-family="sans-serif" font-size="14" lengthAdjust="spacing" textLength="76" x="549.5" y="77.9951">XController</text><ellipse cx="590.5" cy="49" fill="#FFFFFF" rx="12" ry="12" style="stroke:#181818;stroke-width:0.5;"/><polygon fill="#181818" points="586.5,37,592.5,32,590.5,37,592.5,42,586.5,37" style="stroke:#181818;stroke-width:1.0;"/><text fill="#000000" font-family="sans-serif" font-size="14" lengthAdjust="spacing" textLength="76" x="549.5" y="608.5498">XController</text><ellipse cx="590.5" cy="627.8516" fill="#FFFFFF" rx="12" ry="12" style="stroke:#181818;stroke-width:0.5;"/><polygon fill="#181818" points="586.5,615.8516,592.5,610.8516,590.5,615.8516,592.5,620.8516,586.5,615.8516" style="stroke:#181818;stroke-width:1.0;"/><text fill="#000000" font-family="sans-serif" font-size="14" lengthAdjust="spacing" textLength="83" x="654" y="77.9951">XRepository</text><ellipse cx="698.5" cy="49" fill="#FFFFFF" rx="12" ry="12" style="stroke:#181818;stroke-width:0.5;"/><line style="stroke:#181818;stroke-width:0.5;" x1="686.5" x2="710.5" y1="63" y2="63"/><text fill="#000000" font-family="sans-serif" font-size="14" lengthAdjust="spacing" textLength="83" x="654" y="608.5498">XRepository</text><ellipse cx="698.5" cy="627.8516" fill="#FFFFFF" rx="12" ry="12" style="stroke:#181818;stroke-width:0.5;"/><line style="stroke:#181818;stroke-width:0.5;" x1="686.5" x2="710.5" y1="641.8516" y2="641.8516"/><text fill="#000000" font-family="sans-serif" font-size="14" lengthAdjust="spacing" textLength="47" x="753" y="77.9951">XEntity</text><ellipse cx="779.5" cy="49" fill="#FFFFFF" rx="12" ry="12" style="stroke:#181818;stroke-width:0.5;"/><line style="stroke:#181818;stroke-width:0.5;" x1="767.5" x2="791.5" y1="63" y2="63"/><text fill="#000000" font-family="sans-serif" font-size="14" lengthAdjust="spacing" textLength="47" x="753" y="608.5498">XEntity</text><ellipse cx="779.5" cy="627.8516" fill="#FFFFFF" rx="12" ry="12" style="stroke:#181818;stroke-width:0.5;"/><line style="stroke:#181818;stroke-width:0.5;" x1="767.5" x2="791.5" y1="641.8516" y2="641.8516"/><text fill="#000000" font-family="sans-serif" font-size="14" lengthAdjust="spacing" textLength="34" x="865.5" y="77.9951">XDto</text><path d="M865,37 L865,61 M865,49 L882,49 " fill="none" style="stroke:#181818;stroke-width:0.5;"/><ellipse cx="894" cy="49" fill="#FFFFFF" rx="12" ry="12" style="stroke:#181818;stroke-width:0.5;"/><text fill="#000000" font-family="sans-serif" font-size="14" lengthAdjust="spacing" textLength="34" x="865.5" y="608.5498">XDto</text><path d="M865,615.8516 L865,639.8516 M865,627.8516 L882,627.8516 " fill="none" style="stroke:#181818;stroke-width:0.5;"/><ellipse cx="894" cy="627.8516" fill="#FFFFFF" rx="12" ry="12" style="stroke:#181818;stroke-width:0.5;"/><rect fill="#FFFFFF" height="21.1328" style="stroke:#181818;stroke-width:1.0;" width="10" x="21" y="91.2969"/><rect fill="#FFFFFF" height="29.1328" style="stroke:#181818;stroke-width:1.0;" width="10" x="92" y="112.4297"/><rect fill="#FFFFFF" height="58.2656" style="stroke:#181818;stroke-width:1.0;" width="10" x="190.5" y="141.5625"/><rect fill="#FFFFFF" height="29.1328" style="stroke:#181818;stroke-width:1.0;" width="10" x="190.5" y="549.4219"/><rect fill="#FFFFFF" height="29.1328" style="stroke:#181818;stroke-width:1.0;" width="10" x="365.5" y="199.8281"/><rect fill="#FFFFFF" height="29.1328" style="stroke:#181818;stroke-width:1.0;" width="10" x="365.5" y="520.2891"/><rect fill="#FFFFFF" height="29.1328" style="stroke:#181818;stroke-width:1.0;" width="10" x="483.5" y="228.9609"/><rect fill="#FFFFFF" height="29.1328" style="stroke:#181818;stroke-width:1.0;" width="10" x="483.5" y="491.1563"/><rect fill="#FFFFFF" height="29.1328" style="stroke:#181818;stroke-width:1.0;" width="10" x="585.5" y="258.0938"/><rect fill="#FFFFFF" height="58.2656" style="stroke:#181818;stroke-width:1.0;" width="10" x="585.5" y="345.4922"/><rect fill="#FFFFFF" height="29.1328" style="stroke:#181818;stroke-width:1.0;" width="10" x="585.5" y="462.0234"/><rect fill="#FFFFFF" height="58.2656" style="stroke:#181818;stroke-width:1.0;" width="10" x="693.5" y="287.2266"/><rect fill="#FFFFFF" height="29.1328" style="stroke:#181818;stroke-width:1.0;" width="10" x="774.5" y="432.8906"/><rect fill="#FFFFFF" height="29.1328" style="stroke:#181818;stroke-width:1.0;" width="10" x="880.5" y="403.7578"/><polygon fill="#181818" points="80,108.4297,90,112.4297,80,116.4297,84,112.4297" style="stroke:#181818;stroke-width:1.0;"/><line style="stroke:#181818;stroke-width:1.0;" x1="26" x2="86" y1="112.4297" y2="112.4297"/><text fill="#000000" font-family="sans-serif" font-size="13" lengthAdjust="spacing" textLength="20" x="33" y="107.3638">set</text><polygon fill="#181818" points="178.5,137.5625,188.5,141.5625,178.5,145.5625,182.5,141.5625" style="stroke:#181818;stroke-width:1.0;"/><line style="stroke:#181818;stroke-width:1.0;" x1="97" x2="184.5" y1="141.5625" y2="141.5625"/><text fill="#000000" font-family="sans-serif" font-size="13" lengthAdjust="spacing" textLength="20" x="104" y="136.4966">set</text><polygon fill="#181818" points="279,166.6953,289,170.6953,279,174.6953,283,170.6953" style="stroke:#181818;stroke-width:1.0;"/><line style="stroke:#181818;stroke-width:1.0;" x1="200.5" x2="285" y1="170.6953" y2="170.6953"/><text fill="#000000" font-family="sans-serif" font-size="13" lengthAdjust="spacing" textLength="37" x="207.5" y="165.6294">check</text><polygon fill="#181818" points="353.5,195.8281,363.5,199.8281,353.5,203.8281,357.5,199.8281" style="stroke:#181818;stroke-width:1.0;"/><line style="stroke:#181818;stroke-width:1.0;" x1="195.5" x2="359.5" y1="199.8281" y2="199.8281"/><text fill="#000000" font-family="sans-serif" font-size="13" lengthAdjust="spacing" textLength="20" x="202.5" y="194.7622">set</text><polygon fill="#181818" points="471.5,224.9609,481.5,228.9609,471.5,232.9609,475.5,228.9609" style="stroke:#181818;stroke-width:1.0;"/><line style="stroke:#181818;stroke-width:1.0;" x1="370.5" x2="477.5" y1="228.9609" y2="228.9609"/><text fill="#000000" font-family="sans-serif" font-size="13" lengthAdjust="spacing" textLength="79" x="377.5" y="223.895">http request</text><polygon fill="#181818" points="573.5,254.0938,583.5,258.0938,573.5,262.0938,577.5,258.0938" style="stroke:#181818;stroke-width:1.0;"/><line style="stroke:#181818;stroke-width:1.0;" x1="488.5" x2="579.5" y1="258.0938" y2="258.0938"/><text fill="#000000" font-family="sans-serif" font-size="13" lengthAdjust="spacing" textLength="20" x="495.5" y="253.0278">set</text><polygon fill="#181818" points="681.5,283.2266,691.5,287.2266,681.5,291.2266,685.5,287.2266" style="stroke:#181818;stroke-width:1.0;"/><line style="stroke:#181818;stroke-width:1.0;" x1="590.5" x2="687.5" y1="287.2266" y2="287.2266"/><text fill="#000000" font-family="sans-serif" font-size="13" lengthAdjust="spacing" textLength="20" x="597.5" y="282.1606">set</text><polygon fill="#181818" points="767.5,312.3594,777.5,316.3594,767.5,320.3594,771.5,316.3594" style="stroke:#181818;stroke-width:1.0;"/><line style="stroke:#181818;stroke-width:1.0;" x1="703.5" x2="773.5" y1="316.3594" y2="316.3594"/><text fill="#000000" font-family="sans-serif" font-size="13" lengthAdjust="spacing" textLength="25" x="710.5" y="311.2935">new</text><polygon fill="#181818" points="606.5,341.4922,596.5,345.4922,606.5,349.4922,602.5,345.4922" style="stroke:#181818;stroke-width:1.0;"/><line style="stroke:#181818;stroke-width:1.0;" x1="600.5" x2="697.5" y1="345.4922" y2="345.4922"/><text fill="#000000" font-family="sans-serif" font-size="13" lengthAdjust="spacing" textLength="79" x="612.5" y="340.4263">return entity</text><polygon fill="#181818" points="767.5,370.625,777.5,374.625,767.5,378.625,771.5,374.625" style="stroke:#181818;stroke-width:1.0;"/><line style="stroke:#181818;stroke-width:1.0;" x1="595.5" x2="773.5" y1="374.625" y2="374.625"/><text fill="#000000" font-family="sans-serif" font-size="13" lengthAdjust="spacing" textLength="20" x="602.5" y="369.5591">set</text><polygon fill="#181818" points="868.5,399.7578,878.5,403.7578,868.5,407.7578,872.5,403.7578" style="stroke:#181818;stroke-width:1.0;"/><line style="stroke:#181818;stroke-width:1.0;" x1="590.5" x2="874.5" y1="403.7578" y2="403.7578"/><text fill="#000000" font-family="sans-serif" font-size="13" lengthAdjust="spacing" textLength="75" x="597.5" y="398.6919">new (entity)</text><polygon fill="#181818" points="795.5,428.8906,785.5,432.8906,795.5,436.8906,791.5,432.8906" style="stroke:#181818;stroke-width:1.0;"/><line style="stroke:#181818;stroke-width:1.0;" x1="789.5" x2="884.5" y1="432.8906" y2="432.8906"/><text fill="#000000" font-family="sans-serif" font-size="13" lengthAdjust="spacing" textLength="39" x="801.5" y="427.8247">getX()</text><polygon fill="#181818" points="873.5,458.0234,883.5,462.0234,873.5,466.0234,877.5,462.0234" style="stroke:#181818;stroke-width:1.0;"/><line style="stroke:#181818;stroke-width:1.0;" x1="779.5" x2="879.5" y1="462.0234" y2="462.0234"/><text fill="#000000" font-family="sans-serif" font-size="13" lengthAdjust="spacing" textLength="77" x="786.5" y="456.9575">return value</text><polygon fill="#181818" points="504.5,487.1563,494.5,491.1563,504.5,495.1563,500.5,491.1563" style="stroke:#181818;stroke-width:1.0;"/><line style="stroke:#181818;stroke-width:1.0;" x1="498.5" x2="589.5" y1="491.1563" y2="491.1563"/><text fill="#000000" font-family="sans-serif" font-size="13" lengthAdjust="spacing" textLength="73" x="510.5" y="486.0903">return xDto</text><polygon fill="#181818" points="386.5,516.2891,376.5,520.2891,386.5,524.2891,382.5,520.2891" style="stroke:#181818;stroke-width:1.0;"/><line style="stroke:#181818;stroke-width:1.0;" x1="380.5" x2="487.5" y1="520.2891" y2="520.2891"/><text fill="#000000" font-family="sans-serif" font-size="13" lengthAdjust="spacing" textLength="89" x="392.5" y="515.2231">http response</text><polygon fill="#181818" points="211.5,545.4219,201.5,549.4219,211.5,553.4219,207.5,549.4219" style="stroke:#181818;stroke-width:1.0;"/><line style="stroke:#181818;stroke-width:1.0;" x1="205.5" x2="369.5" y1="549.4219" y2="549.4219"/><text fill="#000000" font-family="sans-serif" font-size="13" lengthAdjust="spacing" textLength="73" x="217.5" y="544.356">return xDto</text><polygon fill="#181818" points="108,574.5547,98,578.5547,108,582.5547,104,578.5547" style="stroke:#181818;stroke-width:1.0;"/><line style="stroke:#181818;stroke-width:1.0;" x1="102" x2="194.5" y1="578.5547" y2="578.5547"/><text fill="#000000" font-family="sans-serif" font-size="13" lengthAdjust="spacing" textLength="20" x="114" y="573.4888">set</text><!--SRC=[ZLHBSiCW3Dth52pJHI_WHMUQj1TeEvrigQD9c3ZW0awQszTWa73iZBDXG9-d9-dPxgXqAwqyYNVjbR-kPNtSMzFftSOqnehBGNa4Hr7hu99sCMvZjBUcMGfxhRsnyq4WWs-8W9zKLco_yDGsilUpQMDEhT6eFTH3LR7zbetQoP19fa-qPrKZ6pxGcSwMbaIwGGiOfn62MkDK3tGbqp2eelwRDv6jElUy4k5uYkSN9bm9XnvsU1D8J-uCw1e1gBq90gUmYOS1V8yuD9DAr0UiZxV-DA1f5OPaMvucv5k4o2EjnC7xLbZyxT2DmN8YMsWFGDVKTzx6b1Bbb2nfUL0y4g-ynRdkAA_4fxL3yOXWm_uheV4oTPQaBVhEQZ7eveO-mJ_MGAuPo4-SlVuY6x4QIZqjznSb6yuH-XxzTZNE3e7yIjA7TE7ggTMpR3eSvQUCHzUKvPFm_aBv1vOrBo0IT1AZwrNiS4b7yyekFi9xtARAllyjtlqfSDm_]--></g></svg>