<svg xmlns="http://www.w3.org/2000/svg" xmlns:xlink="http://www.w3.org/1999/xlink" contentStyleType="text/css" height="412px" preserveAspectRatio="none" style="width:1319px;height:412px;background:#FFFFFF;" version="1.1" viewBox="0 0 1319 412" width="1319px" zoomAndPan="magnify"><defs/><g><g id="elem_Receiver"><rect fill="#F1F1F1" height="36.2969" style="stroke:#181818;stroke-width:0.5;" width="84.3623" x="15.19" y="7"/><text fill="#000000" font-family="sans-serif" font-size="14" lengthAdjust="spacing" textLength="70.3623" x="22.19" y="21.9951">: Receiver</text><line style="stroke:#181818;stroke-width:0.5;" x1="16.19" x2="98.5523" y1="27.2969" y2="27.2969"/></g><g id="elem_NewReportView"><rect fill="#F1F1F1" height="52.5938" style="stroke:#181818;stroke-width:0.5;" width="100.7412" x="7" y="210.3"/><text fill="#000000" font-family="sans-serif" font-size="14" lengthAdjust="spacing" textLength="86.7412" x="14" y="225.2951">: NewReport</text><text fill="#000000" font-family="sans-serif" font-size="14" lengthAdjust="spacing" textLength="33.5303" x="40.6055" y="241.592">View</text><line style="stroke:#181818;stroke-width:0.5;" x1="8" x2="106.7412" y1="246.8938" y2="246.8938"/></g><g id="elem_Client"><rect fill="#F1F1F1" height="36.2969" style="stroke:#181818;stroke-width:0.5;" width="63.6973" x="709.52" y="7"/><text fill="#000000" font-family="sans-serif" font-size="14" lengthAdjust="spacing" textLength="49.6973" x="716.52" y="21.9951">: Client</text><line style="stroke:#181818;stroke-width:0.5;" x1="710.52" x2="772.2173" y1="27.2969" y2="27.2969"/></g><g id="elem_Vehicle"><rect fill="#F1F1F1" height="36.2969" style="stroke:#181818;stroke-width:0.5;" width="74.3203" x="648.21" y="369.89"/><text fill="#000000" font-family="sans-serif" font-size="14" lengthAdjust="spacing" textLength="60.3203" x="655.21" y="384.8851">: Vehicle</text><line style="stroke:#181818;stroke-width:0.5;" x1="649.21" x2="721.5303" y1="390.1869" y2="390.1869"/></g><g id="elem_Report"><rect fill="#F1F1F1" height="36.2969" style="stroke:#181818;stroke-width:0.5;" width="70.2051" x="885.27" y="218.45"/><text fill="#000000" font-family="sans-serif" font-size="14" lengthAdjust="spacing" textLength="56.2051" x="892.27" y="233.4451">: Report</text><line style="stroke:#181818;stroke-width:0.5;" x1="886.27" x2="954.4751" y1="238.7469" y2="238.7469"/></g><g id="elem_Employee"><rect fill="#F1F1F1" height="36.2969" style="stroke:#181818;stroke-width:0.5;" width="92.5039" x="1082.12" y="369.89"/><text fill="#000000" font-family="sans-serif" font-size="14" lengthAdjust="spacing" textLength="78.5039" x="1089.12" y="384.8851">: Employee</text><line style="stroke:#181818;stroke-width:0.5;" x1="1083.12" x2="1173.6239" y1="390.1869" y2="390.1869"/></g><g id="elem_PreviousDamage"><rect fill="#F1F1F1" height="36.2969" style="stroke:#181818;stroke-width:0.5;" width="141.9619" x="1171.39" y="218.45"/><text fill="#000000" font-family="sans-serif" font-size="14" lengthAdjust="spacing" textLength="127.9619" x="1178.39" y="233.4451">: PreviousDamage</text><line style="stroke:#181818;stroke-width:0.5;" x1="1172.39" x2="1312.3519" y1="238.7469" y2="238.7469"/></g><g id="elem_ReportedProblem"><rect fill="#F1F1F1" height="36.2969" style="stroke:#181818;stroke-width:0.5;" width="145.4961" x="835.62" y="369.89"/><text fill="#000000" font-family="sans-serif" font-size="14" lengthAdjust="spacing" textLength="131.4961" x="842.62" y="384.8851">: ReportedProblem</text><line style="stroke:#181818;stroke-width:0.5;" x1="836.62" x2="980.1161" y1="390.1869" y2="390.1869"/></g><g id="elem_CreateReportController"><rect fill="#F1F1F1" height="52.5938" style="stroke:#181818;stroke-width:0.5;" width="117.0313" x="504.85" y="210.3"/><text fill="#000000" font-family="sans-serif" font-size="14" lengthAdjust="spacing" textLength="103.0313" x="511.85" y="225.2951">: CreateReport</text><text fill="#000000" font-family="sans-serif" font-size="14" lengthAdjust="spacing" textLength="69.1729" x="528.7792" y="241.592">Controller</text><line style="stroke:#181818;stroke-width:0.5;" x1="505.85" x2="620.8813" y1="246.8938" y2="246.8938"/></g><!--link Receiver to NewReportView--><g id="link_Receiver_NewReportView"><path codeLine="11" d="M57.37,43.65 C57.37,80.61 57.37,166.81 57.37,209.99 " fill="none" id="Receiver-NewReportView" style="stroke:#181818;stroke-width:1;"/><polygon fill="#000000" points="63.37,86.8664,66.3089,77.8213,60.4311,77.8213,63.37,86.8664" style="stroke:#000000;stroke-width:1;"/><text fill="#000000" font-family="sans-serif" font-size="13" lengthAdjust="spacing" textLength="332.0332" x="71.37" y="86.3669">submitClientData(ci, name, address, email, phone)</text><text fill="#000000" font-family="sans-serif" font-size="13" lengthAdjust="spacing" textLength="272.8223" x="96.5416" y="101.4997">submitVehicleData(brand, model, license,</text><text fill="#000000" font-family="sans-serif" font-size="13" lengthAdjust="spacing" textLength="233.5112" x="112.0648" y="116.6325">engineSerialNumber, seatsNumber)</text><text fill="#000000" font-family="sans-serif" font-size="13" lengthAdjust="spacing" textLength="292.2271" x="84.7731" y="131.7653">submitPreviousDamage(damageDescription)</text><text fill="#000000" font-family="sans-serif" font-size="13" lengthAdjust="spacing" textLength="296.4863" x="82.6434" y="146.8981">submitReportedProblem(problemDescription)</text><text fill="#000000" font-family="sans-serif" font-size="13" lengthAdjust="spacing" textLength="169.5903" x="146.0914" y="162.031">setMechanic(employeeID)</text><text fill="#000000" font-family="sans-serif" font-size="13" lengthAdjust="spacing" textLength="95.3735" x="185.266" y="177.1638">createReport()</text></g><!--link NewReportView to CreateReportController--><g id="link_NewReportView_CreateReportController"><path codeLine="12" d="M108.2,236.6 C202.56,236.6 404.27,236.6 504.43,236.6 " fill="none" id="NewReportView-CreateReportController" style="stroke:#181818;stroke-width:1;"/><polygon fill="#000000" points="178.0693,195.1664,169.0242,192.2275,169.0242,198.1053,178.0693,195.1664" style="stroke:#000000;stroke-width:1;"/><text fill="#000000" font-family="sans-serif" font-size="13" lengthAdjust="spacing" textLength="263.5674" x="181.0693" y="199.6669">1: createReport(clientData, vehicleData,</text><text fill="#000000" font-family="sans-serif" font-size="13" lengthAdjust="spacing" textLength="350.8413" x="130.9323" y="214.7997">previousDamages, problemDescriptions, mechanicID)</text><polygon fill="#000000" points="220.7263,225.432,229.7714,228.371,229.7714,222.4931,220.7263,225.432" style="stroke:#000000;stroke-width:1;"/><text fill="#000000" font-family="sans-serif" font-size="13" lengthAdjust="spacing" textLength="158.2534" x="233.7263" y="229.9325">9: showResultMessage()</text></g><!--link Client to CreateReportController--><g id="link_Client_CreateReportController"><path codeLine="13" d="M719.89,43.65 C709.9,52.19 698.11,62.85 688.37,73.3 C646.31,118.45 603.84,176.95 580.84,209.96 " fill="none" id="Client-CreateReportController" style="stroke:#181818;stroke-width:1;"/><polygon fill="#000000" points="729.8518,108.0305,721.7953,113.0846,726.3047,116.8548,729.8518,108.0305" style="stroke:#000000;stroke-width:1;"/><text fill="#000000" font-family="sans-serif" font-size="13" lengthAdjust="spacing" textLength="81.1548" x="734.6447" y="116.3669">2: search(ci)</text><text fill="#000000" font-family="sans-serif" font-size="13" lengthAdjust="spacing" textLength="133.1865" x="702.1288" y="131.4997">3: new( clientData) |</text><text fill="#000000" font-family="sans-serif" font-size="13" lengthAdjust="spacing" textLength="154.5718" x="693.5023" y="146.6325">set(clientID, clientData)</text></g><!--link CreateReportController to Vehicle--><g id="link_CreateReportController_Vehicle"><path codeLine="14" d="M576.27,263.14 C587.92,284.86 606.43,316.19 627.37,339.89 C636.99,350.78 649.3,361.17 660.1,369.41 " fill="none" id="CreateReportController-Vehicle" style="stroke:#181818;stroke-width:1;"/><polygon fill="#000000" points="662.0255,305.382,658.731,296.4603,654.1161,300.1007,662.0255,305.382" style="stroke:#000000;stroke-width:1;"/><text fill="#000000" font-family="sans-serif" font-size="13" lengthAdjust="spacing" textLength="115.7749" x="666.9288" y="305.9569">4: search(license)</text><text fill="#000000" font-family="sans-serif" font-size="13" lengthAdjust="spacing" textLength="139.6484" x="648.4921" y="321.0897">5: new(vehicleData) |</text><text fill="#000000" font-family="sans-serif" font-size="13" lengthAdjust="spacing" textLength="175.7603" x="632.5023" y="336.2225">set(vehicleID, vehicleData)</text></g><!--link CreateReportController to Report--><g id="link_CreateReportController_Report"><path codeLine="15" d="M622.32,236.6 C697.18,236.6 823.96,236.6 885.19,236.6 " fill="none" id="CreateReportController-Report" style="stroke:#181818;stroke-width:1;"/><polygon fill="#000000" points="664.372,195.1664,655.3269,192.2275,655.3269,198.1053,664.372,195.1664" style="stroke:#000000;stroke-width:1;"/><text fill="#000000" font-family="sans-serif" font-size="13" lengthAdjust="spacing" textLength="185.4976" x="667.372" y="199.6669">6: create(clientID, vehicleID,</text><text fill="#000000" font-family="sans-serif" font-size="13" lengthAdjust="spacing" textLength="121.6274" x="692.8071" y="214.7997">previousDamages,</text><text fill="#000000" font-family="sans-serif" font-size="13" lengthAdjust="spacing" textLength="225.0815" x="641.08" y="229.9325">problemDescriptions, mechanicID)</text></g><!--link Report to Client--><g id="link_Report_Client"><path codeLine="16" d="M917.63,218.02 C911.68,185.36 894.61,114.83 853.37,73.3 C831.67,51.44 798.29,39.18 773.61,32.68 " fill="none" id="Report-Client" style="stroke:#181818;stroke-width:1;"/></g><!--link Report to Vehicle--><g id="link_Report_Vehicle"><path codeLine="17" d="M906.15,255.07 C887.11,277.47 851.31,316.22 813.37,339.89 C785.14,357.51 749.34,369.99 722.79,377.67 " fill="none" id="Report-Vehicle" style="stroke:#181818;stroke-width:1;"/></g><!--link Report to PreviousDamage--><g id="link_Report_PreviousDamage"><path codeLine="18" d="M955.75,236.6 C1007.3,236.6 1104.15,236.6 1170.9,236.6 " fill="none" id="Report-PreviousDamage" style="stroke:#181818;stroke-width:1;"/><polygon fill="#000000" points="983.93,225.1664,974.8849,222.2275,974.8849,228.1053,983.93,225.1664" style="stroke:#000000;stroke-width:1;"/><text fill="#000000" font-family="sans-serif" font-size="13" lengthAdjust="spacing" textLength="164.5186" x="987.93" y="229.6669">7: new(previousDamage)</text></g><!--link Report to ReportedProblem--><g id="link_Report_ReportedProblem"><path codeLine="19" d="M914.05,254.76 C910.42,265.54 906.22,279.83 904.37,292.89 C901.44,313.58 903.49,319.02 904.37,339.89 C904.79,349.74 905.69,360.72 906.54,369.6 " fill="none" id="Report-ReportedProblem" style="stroke:#181818;stroke-width:1;"/><polygon fill="#000000" points="909.0437,321.4457,912.5666,312.6117,906.7013,312.2282,909.0437,321.4457" style="stroke:#000000;stroke-width:1;"/><text fill="#000000" font-family="sans-serif" font-size="13" lengthAdjust="spacing" textLength="181.9111" x="918.37" y="320.9569">8: new(problemDescription)</text></g><!--link Report to Employee--><g id="link_Report_Employee"><path codeLine="20" d="M955.69,238.14 C997.41,240.75 1066.11,251.59 1105.37,292.89 C1125.19,313.75 1128.8,348.75 1129,369.69 " fill="none" id="Report-Employee" style="stroke:#181818;stroke-width:1;"/></g><!--SRC=[XPJBQjmm58RtVef3LXwG5stJj3MXcxYBB1920bdDHfOFiOekHh9dAFJXAqkovpYJeIjBv_R_-YHiszyeHhYguHa5oWEwA-1-tHHspJ_YyHa7wyQzUPLuZ6LhR8wGsZibqOon92r9xXLxAHJ6P5wJR1gNFSnBalkb1sN_O6fTDYJ_vF0WxUGRhlbRgjg6pdImUtAsLQY9u1gZvt78HroEVsVDwAnIcHLDdb95iJ24ggksfA26d-2dLiinuMduo4iX6HYkaG7lEeVUCq3DfM8mzDRW3lOcDsLiiQjrt7GCjEqmL2efq7XaUuFcJHfyGIUvUfnqYuw13qPzsf1fMqPb5pyDUk7aC4fhIEaxGkMGlcV5E3wWwBcHeiHyJ_TDJ0a2gzmLMooLgoxGZCG-rTjsiR9ZS3WXORFEi3bKG7bkDGHrTfdD_QZ1zpOuyfCA9_1-vh63s-A2gMggyliE_cxXSpqJTg8FLnddVQd1uB64az4T_Cs0illxXj7qHQNmXFAjHnJNgrI-yQZtDUaH5aGlHsT1Md1HCTn52aR1cuKzyKqcVaHyR_x7lCW2rOAH19PVmn89ThOFTNRrBHruAqt7ldkmSy_tfUViwPA-vU_o3m00]--></g></svg>