<svg xmlns="http://www.w3.org/2000/svg" xmlns:xlink="http://www.w3.org/1999/xlink" contentStyleType="text/css" height="372px" preserveAspectRatio="none" style="width:568px;height:372px;background:#FFFFFF;" version="1.1" viewBox="0 0 568 372" width="568px" zoomAndPan="magnify"><defs/><g><!--entity Receiver--><g id="elem_Receiver"><ellipse cx="30.041" cy="156.5" fill="#F1F1F1" rx="8" ry="8" style="stroke:#181818;stroke-width:0.5;"/><path d="M30.041,164.5 L30.041,191.5 M17.041,172.5 L43.041,172.5 M30.041,191.5 L17.041,206.5 M30.041,191.5 L43.041,206.5 " fill="none" style="stroke:#181818;stroke-width:0.5;"/><text fill="#000000" font-family="sans-serif" font-size="11" lengthAdjust="spacing" textLength="48.082" x="6" y="218.2104">Receiver</text></g><!--entity NewReportView--><g id="elem_NewReportView"><path d="M124.0556,159.59 L124.0556,183.59 M124.0556,171.59 L141.0556,171.59 " fill="none" style="stroke:#181818;stroke-width:0.5;"/><ellipse cx="153.0556" cy="171.59" fill="#F1F1F1" rx="12" ry="12" style="stroke:#181818;stroke-width:0.5;"/><text fill="#000000" font-family="sans-serif" font-size="11" lengthAdjust="spacing" textLength="60.9512" x="114.08" y="197.8004">NewReport</text><text fill="#000000" font-family="sans-serif" font-size="11" lengthAdjust="spacing" textLength="26.3452" x="131.383" y="210.6051">View</text></g><!--entity Client--><g id="elem_Client"><ellipse cx="513.8" cy="18" fill="#F1F1F1" rx="12" ry="12" style="stroke:#181818;stroke-width:0.5;"/><line style="stroke:#181818;stroke-width:0.5;" x1="501.8" x2="525.8" y1="32" y2="32"/><text fill="#000000" font-family="sans-serif" font-size="11" lengthAdjust="spacing" textLength="31.8452" x="497.8774" y="44.2104">Client</text></g><!--entity Vehicle--><g id="elem_Vehicle"><ellipse cx="513.7959" cy="338" fill="#F1F1F1" rx="12" ry="12" style="stroke:#181818;stroke-width:0.5;"/><line style="stroke:#181818;stroke-width:0.5;" x1="501.7959" x2="525.7959" y1="352" y2="352"/><text fill="#000000" font-family="sans-serif" font-size="11" lengthAdjust="spacing" textLength="40.1919" x="493.7" y="364.2104">Vehicle</text></g><!--entity Report--><g id="elem_Report"><ellipse cx="387.2592" cy="178" fill="#F1F1F1" rx="12" ry="12" style="stroke:#181818;stroke-width:0.5;"/><line style="stroke:#181818;stroke-width:0.5;" x1="375.2592" x2="399.2592" y1="192" y2="192"/><text fill="#000000" font-family="sans-serif" font-size="11" lengthAdjust="spacing" textLength="36.9585" x="368.78" y="204.2104">Report</text></g><!--entity Employee--><g id="elem_Employee"><ellipse cx="513.7995" cy="98" fill="#F1F1F1" rx="12" ry="12" style="stroke:#181818;stroke-width:0.5;"/><line style="stroke:#181818;stroke-width:0.5;" x1="501.7995" x2="525.7995" y1="112" y2="112"/><text fill="#000000" font-family="sans-serif" font-size="11" lengthAdjust="spacing" textLength="54.479" x="486.56" y="124.2104">Employee</text></g><!--entity PreviousDamage--><g id="elem_PreviousDamage"><ellipse cx="513.7994" cy="178" fill="#F1F1F1" rx="12" ry="12" style="stroke:#181818;stroke-width:0.5;"/><line style="stroke:#181818;stroke-width:0.5;" x1="501.7994" x2="525.7994" y1="192" y2="192"/><text fill="#000000" font-family="sans-serif" font-size="11" lengthAdjust="spacing" textLength="93.3389" x="467.13" y="204.2104">PreviousDamage</text></g><!--entity ReportedProblem--><g id="elem_ReportedProblem"><ellipse cx="513.7979" cy="258" fill="#F1F1F1" rx="12" ry="12" style="stroke:#181818;stroke-width:0.5;"/><line style="stroke:#181818;stroke-width:0.5;" x1="501.7979" x2="525.7979" y1="272" y2="272"/><text fill="#000000" font-family="sans-serif" font-size="11" lengthAdjust="spacing" textLength="96.1157" x="465.74" y="284.2104">ReportedProblem</text></g><!--entity CreateReportController--><g id="elem_CreateReportController"><ellipse cx="271.9052" cy="171.59" fill="#F1F1F1" rx="12" ry="12" style="stroke:#181818;stroke-width:0.5;"/><polygon fill="#181818" points="267.9052,159.59,273.9052,154.59,271.9052,159.59,273.9052,164.59,267.9052,159.59" style="stroke:#181818;stroke-width:1;"/><text fill="#000000" font-family="sans-serif" font-size="11" lengthAdjust="spacing" textLength="73.7505" x="235.03" y="197.8004">CreateReport</text><text fill="#000000" font-family="sans-serif" font-size="11" lengthAdjust="spacing" textLength="54.3501" x="244.7302" y="210.6051">Controller</text></g><!--link Receiver to NewReportView--><g id="link_Receiver_NewReportView"><path d="M54.35,184.4 C71.61,184.4 89.24,184.4 107.84,184.4 " fill="none" id="Receiver-to-NewReportView" style="stroke:#181818;stroke-width:1;"/><polygon fill="#181818" points="113.84,184.4,104.84,180.4,108.84,184.4,104.84,188.4,113.84,184.4" style="stroke:#181818;stroke-width:1;"/></g><!--link NewReportView to CreateReportController--><g id="link_NewReportView_CreateReportController"><path d="M175.26,184.4 C193.07,184.4 209.85,184.4 228.71,184.4 " fill="none" id="NewReportView-to-CreateReportController" style="stroke:#181818;stroke-width:1;"/><polygon fill="#181818" points="234.71,184.4,225.71,180.4,229.71,184.4,225.71,188.4,234.71,184.4" style="stroke:#181818;stroke-width:1;"/></g><!--link CreateReportController to Report--><g id="link_CreateReportController_Report"><path d="M309.09,184.4 C328.91,184.4 346.61,184.4 362.46,184.4 " fill="none" id="CreateReportController-to-Report" style="stroke:#181818;stroke-width:1;"/><polygon fill="#181818" points="368.46,184.4,359.46,180.4,363.46,184.4,359.46,188.4,368.46,184.4" style="stroke:#181818;stroke-width:1;"/></g><!--link CreateReportController to Client--><g id="link_CreateReportController_Client"><path d="M309.08,160.27 C362.35,124.74 454.6687,63.1697 492.3387,38.0397 " fill="none" id="CreateReportController-to-Client" style="stroke:#181818;stroke-width:1;"/><polygon fill="#181818" points="497.33,34.71,487.6233,36.3771,493.1706,37.4848,492.0629,43.0321,497.33,34.71" style="stroke:#181818;stroke-width:1;"/></g><!--link CreateReportController to Vehicle--><g id="link_CreateReportController_Vehicle"><path d="M309.08,208.52 C360.52,242.83 448.0281,301.2012 488.2481,328.0212 " fill="none" id="CreateReportController-to-Vehicle" style="stroke:#181818;stroke-width:1;"/><polygon fill="#181818" points="493.24,331.35,487.9713,323.0289,489.0801,328.576,483.5329,329.6848,493.24,331.35" style="stroke:#181818;stroke-width:1;"/></g><!--link Report to Client--><g id="link_Report_Client"><path d="M400.2,161.81 C414.08,136.62 438.6,95.35 465.74,64.4 C475.21,53.59 482.9121,46.8084 492.6321,39.2984 " fill="none" id="Report-to-Client" style="stroke:#181818;stroke-width:1;"/><polygon fill="#181818" points="497.38,35.63,487.8125,37.9673,493.4234,38.687,492.7037,44.2979,497.38,35.63" style="stroke:#181818;stroke-width:1;"/></g><!--link Report to Vehicle--><g id="link_Report_Vehicle"><path d="M400.2,206.99 C414.08,232.18 438.6,273.44 465.74,304.4 C473.94,313.75 479.6776,319.1008 488.6376,326.2408 " fill="none" id="Report-to-Vehicle" style="stroke:#181818;stroke-width:1;"/><polygon fill="#181818" points="493.33,329.98,488.7843,321.2429,489.4197,326.864,483.7986,327.4994,493.33,329.98" style="stroke:#181818;stroke-width:1;"/></g><!--link Report to Employee--><g id="link_Report_Employee"><path d="M406.11,172.94 C427.09,159.46 457.0718,140.1929 481.2318,124.6729 " fill="none" id="Report-to-Employee" style="stroke:#181818;stroke-width:1;"/><polygon fill="#181818" points="486.28,121.43,476.5459,122.9288,482.0732,124.1324,480.8697,129.6597,486.28,121.43" style="stroke:#181818;stroke-width:1;"/></g><!--link Report to PreviousDamage--><g id="link_Report_PreviousDamage"><path d="M406.11,184.4 C421.91,184.4 439.68,184.4 460.78,184.4 " fill="none" id="Report-to-PreviousDamage" style="stroke:#181818;stroke-width:1;"/><polygon fill="#181818" points="466.78,184.4,457.78,180.4,461.78,184.4,457.78,188.4,466.78,184.4" style="stroke:#181818;stroke-width:1;"/></g><!--link Report to ReportedProblem--><g id="link_Report_ReportedProblem"><path d="M406.11,195.86 C424.6,207.74 448.9617,223.3874 472.2217,238.3274 " fill="none" id="Report-to-ReportedProblem" style="stroke:#181818;stroke-width:1;"/><polygon fill="#181818" points="477.27,241.57,471.8592,233.3406,473.0631,238.8679,467.5358,240.0717,477.27,241.57" style="stroke:#181818;stroke-width:1;"/></g><!--SRC=[VL3BJiCm4BpxArQvSEgXFu240XnHLL1FN5ndcwxm8rflMiBNOv8u3Q7qOdaUkzgP-46-qQmTHEaiffV9IEkiidWGa01CzL6W8aOZ5BoAqqI51zrQUSDFUR1KUuTUmAG7-Q_hENXvfI-4zLefRIGmRD4WdP9PxKFhAyqT52zutc8JMDxzZl1SW8umSJ-CIlj9EYWjfLz6EpoIiPZXO5Tt5wY9i_Za6XiwdCmRnXE5DZvgf-l52gms7FOMdL8c1U1WeIWPjM2-iXneYzpVEXSlab8vAwnMzuj0lr2l_xFaEjrFZ85lECQ-RZXoXuCu7venLqnJdoFNaujIvzAYsMy0]--></g></svg>